G04 start of page 2 for group 0 idx 0 *
G04 Title: (unknown), top *
G04 Creator: pcb 20140316 *
G04 CreationDate: Wed 10 Feb 2021 01:22:49 AM GMT UTC *
G04 For: tom *
G04 Format: Gerber/RS-274X *
G04 PCB-Dimensions (mil): 600.00 2100.00 *
G04 PCB-Coordinate-Origin: lower left *
%MOIN*%
%FSLAX25Y25*%
%LNTOP*%
%ADD22C,0.0380*%
%ADD21C,0.0170*%
%ADD20C,0.1339*%
%ADD19C,0.0590*%
%ADD18C,0.0118*%
%ADD17R,0.0310X0.0310*%
%ADD16C,0.0600*%
%ADD15C,0.0001*%
%ADD14C,0.0320*%
%ADD13C,0.3287*%
%ADD12C,0.0250*%
%ADD11C,0.0100*%
G54D11*X30000Y186000D02*Y181100D01*
X20000D02*Y185000D01*
X21500Y186500D02*X20000Y185000D01*
X25000Y181100D02*Y186500D01*
X35000Y186000D02*Y181100D01*
X40000D02*Y187000D01*
X35000Y185500D02*Y186500D01*
X25000D02*X25500Y187000D01*
X30000Y185500D02*Y187000D01*
X49864Y52500D02*X49682Y52682D01*
G54D12*X32500Y82500D02*X50000Y92500D01*
X32500Y72500D02*X50000D01*
X32500Y67500D02*X50000Y62500D01*
X32500Y77500D02*X50000Y82500D01*
X32500Y62500D02*X50000Y52500D01*
G54D11*X55000Y46000D02*X40500D01*
X27500Y59000D01*
Y62500D01*
X55000Y46000D02*X57500Y48500D01*
X15500Y84500D02*X13500Y82500D01*
X19000Y75500D02*X16000Y72500D01*
X10000D01*
X22500Y85000D02*Y70000D01*
X25000Y67500D01*
X27500D01*
X13500Y82500D02*X10000D01*
X22500Y90500D02*Y84500D01*
X7500Y92500D02*X6000D01*
X4000Y94500D01*
X4250Y94250D01*
X40500Y141500D02*X49000Y133000D01*
Y117000D01*
X22500Y90500D01*
X19000Y75500D02*Y108000D01*
X40750Y141250D02*X40000Y142000D01*
X15500Y84500D02*Y107500D01*
X57500Y48500D02*Y129500D01*
X42500Y144500D01*
X30000Y147000D02*Y174000D01*
X17500Y164500D02*X20000Y167000D01*
Y174000D01*
Y163500D02*X25000Y168500D01*
Y174000D01*
X40000Y167000D02*Y174000D01*
Y142000D02*Y163500D01*
X35000Y168500D01*
Y174000D01*
X42500Y144500D02*Y164500D01*
X40000Y167000D01*
X30000Y147000D02*X18000Y141000D01*
X20000Y147000D02*Y163500D01*
X17500Y148500D02*Y164500D01*
X18000Y141000D02*X10000Y133000D01*
X7000Y134000D02*X20000Y147000D01*
X4000Y135000D02*X17500Y148500D01*
X10000Y133000D02*Y117000D01*
X19000Y108000D01*
X7000Y116000D02*X15500Y107500D01*
X7000Y116000D02*Y134000D01*
X4000Y94500D02*Y135000D01*
G54D13*X29500Y125000D03*
G54D14*X27500Y82500D03*
Y77500D03*
G54D13*X30000Y25000D03*
G54D14*X27500Y72500D03*
Y67500D03*
Y62500D03*
X32500D03*
Y67500D03*
Y72500D03*
Y77500D03*
Y82500D03*
G54D15*G36*
X7000Y95500D02*Y89500D01*
X13000D01*
Y95500D01*
X7000D01*
G37*
G54D16*X10000Y82500D03*
Y72500D03*
Y62500D03*
Y52500D03*
G54D15*G36*
X47000Y95500D02*Y89500D01*
X53000D01*
Y95500D01*
X47000D01*
G37*
G54D16*X50000Y82500D03*
Y72500D03*
Y62500D03*
Y52500D03*
G54D17*X30000Y182500D02*Y179700D01*
X35000Y182500D02*Y179700D01*
X40000Y182500D02*Y179700D01*
Y175400D02*Y172600D01*
X35000Y175400D02*Y172600D01*
X30000Y175400D02*Y172600D01*
X20000Y182500D02*Y179700D01*
X25000Y182500D02*Y179700D01*
Y175400D02*Y172600D01*
X20000Y175400D02*Y172600D01*
G54D15*G36*
X23201Y187497D02*X22497Y188201D01*
X21503D01*
X20799Y187497D01*
Y186503D01*
X21503Y185799D01*
X22497D01*
X23201Y186503D01*
Y187497D01*
G37*
G36*
X31201D02*X30497Y188201D01*
X29503D01*
X28799Y187497D01*
Y186503D01*
X29503Y185799D01*
X30497D01*
X31201Y186503D01*
Y187497D01*
G37*
G36*
X36201D02*X35497Y188201D01*
X34503D01*
X33799Y187497D01*
Y186503D01*
X34503Y185799D01*
X35497D01*
X36201Y186503D01*
Y187497D01*
G37*
G36*
X41201D02*X40497Y188201D01*
X39503D01*
X38799Y187497D01*
Y186503D01*
X39503Y185799D01*
X40497D01*
X41201Y186503D01*
Y187497D01*
G37*
G36*
X26701D02*X25997Y188201D01*
X25003D01*
X24299Y187497D01*
Y186503D01*
X25003Y185799D01*
X25997D01*
X26701Y186503D01*
Y187497D01*
G37*
G54D18*G54D19*G54D20*G54D21*G54D20*G54D21*G54D22*M02*
