G04 start of page 10 for group -4078 idx -4078 *
G04 Title: (unknown), bottomsilk *
G04 Creator: pcb 20140316 *
G04 CreationDate: Wed 10 Feb 2021 01:22:49 AM GMT UTC *
G04 For: tom *
G04 Format: Gerber/RS-274X *
G04 PCB-Dimensions (mil): 600.00 2100.00 *
G04 PCB-Coordinate-Origin: lower left *
%MOIN*%
%FSLAX25Y25*%
%LNBOTTOMSILK*%
%ADD56C,0.0050*%
%ADD55C,0.0100*%
%ADD54C,0.0060*%
G54D54*X38500Y171000D02*Y156500D01*
G54D55*X35500Y178500D03*
G54D54*X36000Y179000D02*X35000D01*
Y178000D01*
X36000D01*
Y179000D01*
G54D55*X35500Y176000D03*
G54D54*X36000Y176500D02*X35000D01*
Y175500D01*
X36000D01*
Y176500D01*
G54D55*X41000Y178500D03*
G54D54*Y178000D02*X40500D01*
X41500D01*
Y179000D01*
X40500D01*
Y178000D01*
G54D55*X41000Y176000D03*
G54D54*X41500Y176500D02*X40500D01*
Y175500D01*
X41500D01*
Y176500D01*
G54D55*X19000Y176000D03*
G54D54*X19500Y176500D02*X18500D01*
Y175500D01*
X19500D01*
Y176500D01*
G54D55*X19000Y178500D03*
G54D54*X19500Y179000D02*X18500D01*
Y178000D01*
X19500D01*
Y179000D01*
G54D55*X24500Y178500D03*
X30000Y176000D03*
G54D54*X30500Y176500D02*X29500D01*
Y175500D01*
X30500D01*
Y176500D01*
G54D55*X30000Y178500D03*
G54D54*X30500Y179000D02*X29500D01*
Y178000D01*
X30500D01*
Y178500D01*
Y178000D02*Y179000D01*
G54D55*X24500Y176000D03*
G54D54*X25000Y176500D02*X24000D01*
Y175500D01*
X25000D01*
Y176500D01*
Y179000D02*X24000D01*
Y178000D01*
X25000D01*
Y179000D01*
X11000Y125000D02*G75*G03X29500Y106500I18500J0D01*G01*
X48000Y125000D02*G75*G02X29500Y106500I-18500J0D01*G01*
X11000Y125000D02*G75*G02X29500Y143500I18500J0D01*G01*
X48000Y125000D02*G75*G03X29500Y143500I-18500J0D01*G01*
X11500Y25000D02*G75*G03X30000Y6500I18500J0D01*G01*
X48500Y25000D02*G75*G02X30000Y6500I-18500J0D01*G01*
X11500Y25000D02*G75*G02X30000Y43500I18500J0D01*G01*
X48500Y25000D02*G75*G03X30000Y43500I-18500J0D01*G01*
X33000Y171000D02*X37000D01*
X33000D02*X37000Y168500D01*
X33000D02*X37000D01*
Y165300D02*Y166600D01*
X36300Y167300D02*X37000Y166600D01*
X33700Y167300D02*X36300D01*
X33700D02*X33000Y166600D01*
Y165300D02*Y166600D01*
X17000Y169500D02*X17500Y169000D01*
X17000Y169500D02*Y171000D01*
X17500Y171500D02*X17000Y171000D01*
X17500Y171500D02*X18500D01*
X19000Y171000D01*
Y169500D02*Y171000D01*
Y169500D02*X19500Y169000D01*
X20500D01*
X21000Y169500D02*X20500Y169000D01*
X21000Y169500D02*Y171000D01*
X20500Y171500D02*X21000Y171000D01*
X17000Y167800D02*X19000D01*
X21000Y167300D01*
X19000Y166300D01*
X21000Y165300D01*
X19000Y164800D01*
X17000D02*X19000D01*
X17000Y163100D02*X21000D01*
X17000Y161800D02*X17700Y161100D01*
X20300D01*
X21000Y161800D02*X20300Y161100D01*
X21000Y161800D02*Y163600D01*
X17000Y161800D02*Y163600D01*
Y158900D02*Y159900D01*
Y159400D02*X21000D01*
Y158900D02*Y159900D01*
X17500Y157700D02*X20500D01*
X17500D02*X17000Y157200D01*
Y156200D02*Y157200D01*
Y156200D02*X17500Y155700D01*
X20500D01*
X21000Y156200D02*X20500Y155700D01*
X21000Y156200D02*Y157200D01*
X20500Y157700D02*X21000Y157200D01*
X39500Y169500D02*Y171500D01*
Y169500D02*X40000Y169000D01*
X41000D01*
X41500Y169500D02*X41000Y169000D01*
X41500Y169500D02*Y171000D01*
X39500D02*X43500D01*
X41500Y170200D02*X43500Y169000D01*
X41300Y166300D02*Y167800D01*
X43500Y165800D02*Y167800D01*
X39500D02*X43500D01*
X39500Y165800D02*Y167800D01*
Y162600D02*X40000Y162100D01*
X39500Y162600D02*Y164100D01*
X40000Y164600D02*X39500Y164100D01*
X40000Y164600D02*X41000D01*
X41500Y164100D01*
Y162600D02*Y164100D01*
Y162600D02*X42000Y162100D01*
X43000D01*
X43500Y162600D02*X43000Y162100D01*
X43500Y162600D02*Y164100D01*
X43000Y164600D02*X43500Y164100D01*
X41300Y159400D02*Y160900D01*
X43500Y158900D02*Y160900D01*
X39500D02*X43500D01*
X39500Y158900D02*Y160900D01*
Y155700D02*Y157700D01*
Y156700D02*X43500D01*
X28000Y169500D02*X28500Y169000D01*
X28000Y169500D02*Y171000D01*
X28500Y171500D02*X28000Y171000D01*
X28500Y171500D02*X29500D01*
X30000Y171000D01*
Y169500D02*Y171000D01*
Y169500D02*X30500Y169000D01*
X31500D01*
X32000Y169500D02*X31500Y169000D01*
X32000Y169500D02*Y171000D01*
X31500Y171500D02*X32000Y171000D01*
X28000Y167800D02*X30000D01*
X32000Y167300D01*
X30000Y166300D01*
X32000Y165300D01*
X30000Y164800D01*
X28000D02*X30000D01*
X28500Y163600D02*X31500D01*
X28500D02*X28000Y163100D01*
Y162100D02*Y163100D01*
Y162100D02*X28500Y161600D01*
X31500D01*
X32000Y162100D02*X31500Y161600D01*
X32000Y162100D02*Y163100D01*
X31500Y163600D02*X32000Y163100D01*
X22500Y169500D02*X23000Y169000D01*
X22500Y169500D02*Y171000D01*
X23000Y171500D02*X22500Y171000D01*
X23000Y171500D02*X24000D01*
X24500Y171000D01*
Y169500D02*Y171000D01*
Y169500D02*X25000Y169000D01*
X26000D01*
X26500Y169500D02*X26000Y169000D01*
X26500Y169500D02*Y171000D01*
X26000Y171500D02*X26500Y171000D01*
X22500Y167800D02*X24500D01*
X26500Y167300D01*
X24500Y166300D01*
X26500Y165300D01*
X24500Y164800D01*
X22500D02*X24500D01*
X26500Y161600D02*Y162900D01*
X25800Y163600D02*X26500Y162900D01*
X23200Y163600D02*X25800D01*
X23200D02*X22500Y162900D01*
Y161600D02*Y162900D01*
Y160400D02*X26500D01*
Y158400D02*Y160400D01*
X22500Y157200D02*X26500D01*
X24500D02*X22500Y155200D01*
X24500Y157200D02*X26500Y155200D01*
X49300Y102000D02*X48500Y101200D01*
X52500D01*
Y100500D02*Y102000D01*
X31300Y88000D02*X30500Y87200D01*
X34500D01*
Y86500D02*Y88000D01*
X52000Y37700D02*Y38500D01*
Y37700D02*X55500D01*
X56000Y38200D02*X55500Y37700D01*
X56000Y38200D02*Y38700D01*
X55500Y39200D02*X56000Y38700D01*
X55000Y39200D02*X55500D01*
X52000Y34500D02*Y36500D01*
Y35500D02*X56000D01*
X53000Y33300D02*X56000D01*
X53000D02*X52000Y32600D01*
Y31500D02*Y32600D01*
Y31500D02*X53000Y30800D01*
X56000D01*
X54000D02*Y33300D01*
X52000Y27600D02*X52500Y27100D01*
X52000Y27600D02*Y29100D01*
X52500Y29600D02*X52000Y29100D01*
X52500Y29600D02*X55500D01*
X56000Y29100D01*
Y27600D02*Y29100D01*
Y27600D02*X55500Y27100D01*
X54500D02*X55500D01*
X54000Y27600D02*X54500Y27100D01*
X54000Y27600D02*Y28600D01*
X55500Y25900D02*X52500Y22900D01*
X52000Y19700D02*X52500Y19200D01*
X52000Y19700D02*Y21200D01*
X52500Y21700D02*X52000Y21200D01*
X52500Y21700D02*X53500D01*
X54000Y21200D01*
Y19700D02*Y21200D01*
Y19700D02*X54500Y19200D01*
X55500D01*
X56000Y19700D02*X55500Y19200D01*
X56000Y19700D02*Y21200D01*
X55500Y21700D02*X56000Y21200D01*
X52000Y18000D02*X54000D01*
X56000Y17500D01*
X54000Y16500D01*
X56000Y15500D01*
X54000Y15000D01*
X52000D02*X54000D01*
X52000Y13300D02*X56000D01*
X52000Y12000D02*X52700Y11300D01*
X55300D01*
X56000Y12000D02*X55300Y11300D01*
X56000Y12000D02*Y13800D01*
X52000Y12000D02*Y13800D01*
X5000Y40000D02*X8000D01*
X5000D02*X4000Y39300D01*
Y38200D02*Y39300D01*
Y38200D02*X5000Y37500D01*
X8000D01*
X6000D02*Y40000D01*
X4000Y34300D02*Y36300D01*
Y34300D02*X4500Y33800D01*
X5500D01*
X6000Y34300D02*X5500Y33800D01*
X6000Y34300D02*Y35800D01*
X4000D02*X8000D01*
X6000Y35000D02*X8000Y33800D01*
X4000Y32600D02*X8000D01*
X4000D02*X6000Y31100D01*
X4000Y29600D01*
X8000D01*
Y24600D02*Y25900D01*
X7300Y26600D02*X8000Y25900D01*
X4700Y26600D02*X7300D01*
X4700D02*X4000Y25900D01*
Y24600D02*Y25900D01*
X6500Y23400D02*X7500D01*
X6500D02*X6000Y22900D01*
Y21900D02*Y22900D01*
Y21900D02*X6500Y21400D01*
X7500D01*
X8000Y21900D02*X7500Y21400D01*
X8000Y21900D02*Y22900D01*
X7500Y23400D02*X8000Y22900D01*
X6500Y19700D02*X8000D01*
X6500D02*X6000Y19200D01*
Y18200D02*Y19200D01*
Y20200D02*X6500Y19700D01*
X4000Y16500D02*X7500D01*
X8000Y16000D01*
X5500D02*Y17000D01*
X8000Y13000D02*Y14500D01*
X7500Y15000D02*X8000Y14500D01*
X6500Y15000D02*X7500D01*
X6500D02*X6000Y14500D01*
Y13500D02*Y14500D01*
Y13500D02*X6500Y13000D01*
X7000D02*Y15000D01*
X6500Y13000D02*X7000D01*
X6000Y11800D02*X8000Y9800D01*
Y11800D02*X6000Y9800D01*
X22500Y196500D02*X23000Y196000D01*
X22500Y196500D02*Y198000D01*
X23000Y198500D02*X22500Y198000D01*
X23000Y198500D02*X26000D01*
X26500Y198000D01*
Y196500D02*Y198000D01*
Y196500D02*X26000Y196000D01*
X25000D02*X26000D01*
X24500Y196500D02*X25000Y196000D01*
X24500Y196500D02*Y197500D01*
X22500Y194800D02*X26500D01*
X22500D02*X26500Y192300D01*
X22500D02*X26500D01*
X22500Y190600D02*X26500D01*
X22500Y189300D02*X23200Y188600D01*
X25800D01*
X26500Y189300D02*X25800Y188600D01*
X26500Y189300D02*Y191100D01*
X22500Y189300D02*Y191100D01*
X17000Y198500D02*X21000Y197500D01*
X17000Y196500D01*
Y193300D02*Y195300D01*
Y193300D02*X17500Y192800D01*
X18500D01*
X19000Y193300D02*X18500Y192800D01*
X19000Y193300D02*Y194800D01*
X17000D02*X21000D01*
X19000Y194000D02*X21000Y192800D01*
X18800Y190100D02*Y191600D01*
X21000Y189600D02*Y191600D01*
X17000D02*X21000D01*
X17000Y189600D02*Y191600D01*
Y188400D02*X21000D01*
X17000Y186400D02*Y188400D01*
X18800Y186900D02*Y188400D01*
X17300Y204000D02*X16500Y203200D01*
X20500D01*
Y202500D02*Y204000D01*
X28000Y196500D02*X28500Y196000D01*
X28000Y196500D02*Y198000D01*
X28500Y198500D02*X28000Y198000D01*
X28500Y198500D02*X31500D01*
X32000Y198000D01*
Y196500D02*Y198000D01*
Y196500D02*X31500Y196000D01*
X30500D02*X31500D01*
X30000Y196500D02*X30500Y196000D01*
X30000Y196500D02*Y197500D01*
X28000Y194800D02*X32000D01*
X28000D02*X32000Y192300D01*
X28000D02*X32000D01*
X28000Y190600D02*X32000D01*
X28000Y189300D02*X28700Y188600D01*
X31300D01*
X32000Y189300D02*X31300Y188600D01*
X32000Y189300D02*Y191100D01*
X28000Y189300D02*Y191100D01*
X33500Y198500D02*X37500D01*
X35500D02*X33500Y196500D01*
X35500Y198500D02*X37500Y196500D01*
X35300Y193800D02*Y195300D01*
X37500Y193300D02*Y195300D01*
X33500D02*X37500D01*
X33500Y193300D02*Y195300D01*
Y192100D02*X35500Y191100D01*
X33500Y190100D01*
X35500Y191100D02*X37500D01*
X39500Y196500D02*X40000Y196000D01*
X39500Y196500D02*Y198000D01*
X40000Y198500D02*X39500Y198000D01*
X40000Y198500D02*X43000D01*
X43500Y198000D01*
Y196500D02*Y198000D01*
Y196500D02*X43000Y196000D01*
X42000D02*X43000D01*
X41500Y196500D02*X42000Y196000D01*
X41500Y196500D02*Y197500D01*
X39500Y194800D02*X43500D01*
X39500D02*X43500Y192300D01*
X39500D02*X43500D01*
X39500Y190600D02*X43500D01*
X39500Y189300D02*X40200Y188600D01*
X42800D01*
X43500Y189300D02*X42800Y188600D01*
X43500Y189300D02*Y191100D01*
X39500Y189300D02*Y191100D01*
Y185400D02*X43500D01*
Y185900D02*X43000Y185400D01*
X43500Y185900D02*Y186900D01*
X43000Y187400D02*X43500Y186900D01*
X42000Y187400D02*X43000D01*
X42000D02*X41500Y186900D01*
Y185900D02*Y186900D01*
Y185900D02*X42000Y185400D01*
X43500Y182200D02*Y183700D01*
X43000Y184200D02*X43500Y183700D01*
X42000Y184200D02*X43000D01*
X42000D02*X41500Y183700D01*
Y182700D02*Y183700D01*
Y182700D02*X42000Y182200D01*
X42500D02*Y184200D01*
X42000Y182200D02*X42500D01*
X39500Y180500D02*X43000D01*
X43500Y180000D01*
X41000D02*Y181000D01*
G54D56*X22914Y91003D02*Y53209D01*
X37086Y91003D02*Y76043D01*
Y68957D02*Y53209D01*
X22914D02*X37086D01*
X22914Y91003D02*X37086D01*
X20158Y96909D02*Y47304D01*
X39842Y96909D02*Y76043D01*
Y68957D02*Y47304D01*
X20256Y47205D02*X39842D01*
X20256Y97007D02*X39842D01*
X39448Y76043D02*X39842D01*
X37086D02*X39448D01*
X37086Y68957D02*X39448D01*
X39842D01*
X39448Y76043D02*Y68957D01*
G54D55*X55000Y97500D02*Y47500D01*
X45000D02*X55000D01*
X45000Y97500D02*Y47500D01*
Y97500D02*X55000D01*
X45000D02*Y87500D01*
X55000D01*
X15000Y97500D02*Y47500D01*
X5000D02*X15000D01*
X5000Y97500D02*Y47500D01*
Y97500D02*X15000D01*
X5000D02*Y87500D01*
G54D54*X28000Y102000D02*Y102800D01*
Y102000D02*X31500D01*
X32000Y102500D02*X31500Y102000D01*
X32000Y102500D02*Y103000D01*
X31500Y103500D02*X32000Y103000D01*
X31000Y103500D02*X31500D01*
X28800Y100800D02*X28000Y100000D01*
X32000D01*
Y99300D02*Y100800D01*
M02*
