M48
INCH
T42C0.016
T41C0.038
T40C0.017
T39C0.134
%
T42
X002000Y019700
X002450Y019550
X003000Y020200
X003500Y019550
X003950Y018600
T40
X002750Y008250
X002750Y007750
X002750Y007250
X002750Y006750
X002750Y006250
X003250Y008250
X003250Y007750
X003250Y007250
X003250Y006750
X003250Y006250
T41
X001000Y009250
X001000Y008250
X001000Y007250
X001000Y006250
X001000Y005250
X005000Y009250
X005000Y008250
X005000Y007250
X005000Y006250
X005000Y005250
T39
X002950Y012500
X003000Y002500
M30
