G04 start of page 10 for group -4078 idx -4078 *
G04 Title: (unknown), bottomsilk *
G04 Creator: pcb 20140316 *
G04 CreationDate: Wed 10 Feb 2021 08:39:01 PM GMT UTC *
G04 For: tom *
G04 Format: Gerber/RS-274X *
G04 PCB-Dimensions (mil): 600.00 2100.00 *
G04 PCB-Coordinate-Origin: lower left *
%MOIN*%
%FSLAX25Y25*%
%LNBOTTOMSILK*%
%ADD62C,0.0100*%
%ADD61C,0.0060*%
G54D61*X43350Y181230D02*X16570D01*
X16500Y173900D02*X43500D01*
X16500Y181230D02*X16600D01*
X43500Y173900D02*Y181230D01*
X43130D01*
X38500Y172000D02*Y157500D01*
X19800Y178300D02*Y179900D01*
X18200D01*
Y178300D01*
X19800D01*
X16500Y173900D02*Y181230D01*
X19000Y175200D02*G75*G02X18200Y176000I0J800D01*G01*
X19000Y175200D02*G75*G03X19800Y176000I0J800D01*G01*
X24500Y175200D02*G75*G02X23700Y176000I0J800D01*G01*
X24500Y176800D02*G75*G03X23700Y176000I0J-800D01*G01*
X19000Y176800D02*G75*G02X19800Y176000I0J-800D01*G01*
X19000Y176800D02*G75*G03X18200Y176000I0J-800D01*G01*
X11000Y125000D02*G75*G03X29500Y106500I18500J0D01*G01*
X48000Y125000D02*G75*G02X29500Y106500I-18500J0D01*G01*
X11000Y125000D02*G75*G02X29500Y143500I18500J0D01*G01*
X48000Y125000D02*G75*G03X29500Y143500I-18500J0D01*G01*
X11500Y25000D02*G75*G03X30000Y6500I18500J0D01*G01*
X48500Y25000D02*G75*G02X30000Y6500I-18500J0D01*G01*
X11500Y25000D02*G75*G02X30000Y43500I18500J0D01*G01*
X48500Y25000D02*G75*G03X30000Y43500I-18500J0D01*G01*
X24500Y175200D02*G75*G03X25300Y176000I0J800D01*G01*
X24500Y176800D02*G75*G02X25300Y176000I0J-800D01*G01*
X30000Y175200D02*G75*G02X29200Y176000I0J800D01*G01*
X30000Y175200D02*G75*G03X30800Y176000I0J800D01*G01*
X30000Y176800D02*G75*G02X30800Y176000I0J-800D01*G01*
X30000Y176800D02*G75*G03X29200Y176000I0J-800D01*G01*
X35500Y175200D02*G75*G02X34700Y176000I0J800D01*G01*
X35500Y175200D02*G75*G03X36300Y176000I0J800D01*G01*
X35500Y176800D02*G75*G02X36300Y176000I0J-800D01*G01*
X35500Y176800D02*G75*G03X34700Y176000I0J-800D01*G01*
X41000Y175200D02*G75*G02X40200Y176000I0J800D01*G01*
X41000Y175200D02*G75*G03X41800Y176000I0J800D01*G01*
X41000Y176800D02*G75*G02X41800Y176000I0J-800D01*G01*
X41000Y176800D02*G75*G03X40200Y176000I0J-800D01*G01*
X24500Y178300D02*G75*G02X23700Y179100I0J800D01*G01*
X24500Y179900D02*G75*G03X23700Y179100I0J-800D01*G01*
X24500Y178300D02*G75*G03X25300Y179100I0J800D01*G01*
X24500Y179900D02*G75*G02X25300Y179100I0J-800D01*G01*
X30000Y178300D02*G75*G02X29200Y179100I0J800D01*G01*
X30000Y178300D02*G75*G03X30800Y179100I0J800D01*G01*
X30000Y179900D02*G75*G02X30800Y179100I0J-800D01*G01*
X30000Y179900D02*G75*G03X29200Y179100I0J-800D01*G01*
X35500Y178300D02*G75*G02X34700Y179100I0J800D01*G01*
X35500Y179900D02*G75*G03X34700Y179100I0J-800D01*G01*
X35500Y178300D02*G75*G03X36300Y179100I0J800D01*G01*
X35500Y179900D02*G75*G02X36300Y179100I0J-800D01*G01*
X41000Y178300D02*G75*G02X40200Y179100I0J800D01*G01*
X41000Y178300D02*G75*G03X41800Y179100I0J800D01*G01*
X41000Y179900D02*G75*G02X41800Y179100I0J-800D01*G01*
X41000Y179900D02*G75*G03X40200Y179100I0J-800D01*G01*
X33000Y172000D02*X37000D01*
X33000D02*X37000Y169500D01*
X33000D02*X37000D01*
Y166300D02*Y167600D01*
X36300Y168300D02*X37000Y167600D01*
X33700Y168300D02*X36300D01*
X33700D02*X33000Y167600D01*
Y166300D02*Y167600D01*
X17000Y170500D02*X17500Y170000D01*
X17000Y170500D02*Y172000D01*
X17500Y172500D02*X17000Y172000D01*
X17500Y172500D02*X18500D01*
X19000Y172000D01*
Y170500D02*Y172000D01*
Y170500D02*X19500Y170000D01*
X20500D01*
X21000Y170500D02*X20500Y170000D01*
X21000Y170500D02*Y172000D01*
X20500Y172500D02*X21000Y172000D01*
X17000Y168800D02*X19000D01*
X21000Y168300D01*
X19000Y167300D01*
X21000Y166300D01*
X19000Y165800D01*
X17000D02*X19000D01*
X17000Y164100D02*X21000D01*
X17000Y162800D02*X17700Y162100D01*
X20300D01*
X21000Y162800D02*X20300Y162100D01*
X21000Y162800D02*Y164600D01*
X17000Y162800D02*Y164600D01*
Y159900D02*Y160900D01*
Y160400D02*X21000D01*
Y159900D02*Y160900D01*
X17500Y158700D02*X20500D01*
X17500D02*X17000Y158200D01*
Y157200D02*Y158200D01*
Y157200D02*X17500Y156700D01*
X20500D01*
X21000Y157200D02*X20500Y156700D01*
X21000Y157200D02*Y158200D01*
X20500Y158700D02*X21000Y158200D01*
X39500Y170500D02*Y172500D01*
Y170500D02*X40000Y170000D01*
X41000D01*
X41500Y170500D02*X41000Y170000D01*
X41500Y170500D02*Y172000D01*
X39500D02*X43500D01*
X41500Y171200D02*X43500Y170000D01*
X41300Y167300D02*Y168800D01*
X43500Y166800D02*Y168800D01*
X39500D02*X43500D01*
X39500Y166800D02*Y168800D01*
Y163600D02*X40000Y163100D01*
X39500Y163600D02*Y165100D01*
X40000Y165600D02*X39500Y165100D01*
X40000Y165600D02*X41000D01*
X41500Y165100D01*
Y163600D02*Y165100D01*
Y163600D02*X42000Y163100D01*
X43000D01*
X43500Y163600D02*X43000Y163100D01*
X43500Y163600D02*Y165100D01*
X43000Y165600D02*X43500Y165100D01*
X41300Y160400D02*Y161900D01*
X43500Y159900D02*Y161900D01*
X39500D02*X43500D01*
X39500Y159900D02*Y161900D01*
Y156700D02*Y158700D01*
Y157700D02*X43500D01*
X28000Y170500D02*X28500Y170000D01*
X28000Y170500D02*Y172000D01*
X28500Y172500D02*X28000Y172000D01*
X28500Y172500D02*X29500D01*
X30000Y172000D01*
Y170500D02*Y172000D01*
Y170500D02*X30500Y170000D01*
X31500D01*
X32000Y170500D02*X31500Y170000D01*
X32000Y170500D02*Y172000D01*
X31500Y172500D02*X32000Y172000D01*
X28000Y168800D02*X30000D01*
X32000Y168300D01*
X30000Y167300D01*
X32000Y166300D01*
X30000Y165800D01*
X28000D02*X30000D01*
X28500Y164600D02*X31500D01*
X28500D02*X28000Y164100D01*
Y163100D02*Y164100D01*
Y163100D02*X28500Y162600D01*
X31500D01*
X32000Y163100D02*X31500Y162600D01*
X32000Y163100D02*Y164100D01*
X31500Y164600D02*X32000Y164100D01*
X22500Y170500D02*X23000Y170000D01*
X22500Y170500D02*Y172000D01*
X23000Y172500D02*X22500Y172000D01*
X23000Y172500D02*X24000D01*
X24500Y172000D01*
Y170500D02*Y172000D01*
Y170500D02*X25000Y170000D01*
X26000D01*
X26500Y170500D02*X26000Y170000D01*
X26500Y170500D02*Y172000D01*
X26000Y172500D02*X26500Y172000D01*
X22500Y168800D02*X24500D01*
X26500Y168300D01*
X24500Y167300D01*
X26500Y166300D01*
X24500Y165800D01*
X22500D02*X24500D01*
X26500Y162600D02*Y163900D01*
X25800Y164600D02*X26500Y163900D01*
X23200Y164600D02*X25800D01*
X23200D02*X22500Y163900D01*
Y162600D02*Y163900D01*
Y161400D02*X26500D01*
Y159400D02*Y161400D01*
X22500Y158200D02*X26500D01*
X24500D02*X22500Y156200D01*
X24500Y158200D02*X26500Y156200D01*
X49300Y102000D02*X48500Y101200D01*
X52500D01*
Y100500D02*Y102000D01*
X31450Y87720D02*X30650Y86920D01*
X34650D01*
Y86220D02*Y87720D01*
X22500Y190500D02*X23000Y190000D01*
X22500Y190500D02*Y192000D01*
X23000Y192500D02*X22500Y192000D01*
X23000Y192500D02*X26000D01*
X26500Y192000D01*
Y190500D02*Y192000D01*
Y190500D02*X26000Y190000D01*
X25000D02*X26000D01*
X24500Y190500D02*X25000Y190000D01*
X24500Y190500D02*Y191500D01*
X22500Y188800D02*X26500D01*
X22500D02*X26500Y186300D01*
X22500D02*X26500D01*
X22500Y184600D02*X26500D01*
X22500Y183300D02*X23200Y182600D01*
X25800D01*
X26500Y183300D02*X25800Y182600D01*
X26500Y183300D02*Y185100D01*
X22500Y183300D02*Y185100D01*
X28000Y190500D02*X28500Y190000D01*
X28000Y190500D02*Y192000D01*
X28500Y192500D02*X28000Y192000D01*
X28500Y192500D02*X31500D01*
X32000Y192000D01*
Y190500D02*Y192000D01*
Y190500D02*X31500Y190000D01*
X30500D02*X31500D01*
X30000Y190500D02*X30500Y190000D01*
X30000Y190500D02*Y191500D01*
X28000Y188800D02*X32000D01*
X28000D02*X32000Y186300D01*
X28000D02*X32000D01*
X28000Y184600D02*X32000D01*
X28000Y183300D02*X28700Y182600D01*
X31300D01*
X32000Y183300D02*X31300Y182600D01*
X32000Y183300D02*Y185100D01*
X28000Y183300D02*Y185100D01*
X33500Y191000D02*X37500D01*
X35500D02*X33500Y189000D01*
X35500Y191000D02*X37500Y189000D01*
X35300Y186300D02*Y187800D01*
X37500Y185800D02*Y187800D01*
X33500D02*X37500D01*
X33500Y185800D02*Y187800D01*
Y184600D02*X35500Y183600D01*
X33500Y182600D01*
X35500Y183600D02*X37500D01*
X39500Y199500D02*X40000Y199000D01*
X39500Y199500D02*Y201000D01*
X40000Y201500D02*X39500Y201000D01*
X40000Y201500D02*X43000D01*
X43500Y201000D01*
Y199500D02*Y201000D01*
Y199500D02*X43000Y199000D01*
X42000D02*X43000D01*
X41500Y199500D02*X42000Y199000D01*
X41500Y199500D02*Y200500D01*
X39500Y197800D02*X43500D01*
X39500D02*X43500Y195300D01*
X39500D02*X43500D01*
X39500Y193600D02*X43500D01*
X39500Y192300D02*X40200Y191600D01*
X42800D01*
X43500Y192300D02*X42800Y191600D01*
X43500Y192300D02*Y194100D01*
X39500Y192300D02*Y194100D01*
Y188400D02*X43500D01*
Y188900D02*X43000Y188400D01*
X43500Y188900D02*Y189900D01*
X43000Y190400D02*X43500Y189900D01*
X42000Y190400D02*X43000D01*
X42000D02*X41500Y189900D01*
Y188900D02*Y189900D01*
Y188900D02*X42000Y188400D01*
X43500Y185200D02*Y186700D01*
X43000Y187200D02*X43500Y186700D01*
X42000Y187200D02*X43000D01*
X42000D02*X41500Y186700D01*
Y185700D02*Y186700D01*
Y185700D02*X42000Y185200D01*
X42500D02*Y187200D01*
X42000Y185200D02*X42500D01*
X39500Y183500D02*X43000D01*
X43500Y183000D01*
X41000D02*Y184000D01*
X17000Y194500D02*X21000Y193500D01*
X17000Y192500D01*
Y189300D02*Y191300D01*
Y189300D02*X17500Y188800D01*
X18500D01*
X19000Y189300D02*X18500Y188800D01*
X19000Y189300D02*Y190800D01*
X17000D02*X21000D01*
X19000Y190000D02*X21000Y188800D01*
X18800Y186100D02*Y187600D01*
X21000Y185600D02*Y187600D01*
X17000D02*X21000D01*
X17000Y185600D02*Y187600D01*
Y184400D02*X21000D01*
X17000Y182400D02*Y184400D01*
X18800Y182900D02*Y184400D01*
X17800Y200000D02*X17000Y199200D01*
X21000D01*
Y198500D02*Y200000D01*
X52000Y37700D02*Y38500D01*
Y37700D02*X55500D01*
X56000Y38200D02*X55500Y37700D01*
X56000Y38200D02*Y38700D01*
X55500Y39200D02*X56000Y38700D01*
X55000Y39200D02*X55500D01*
X52000Y34500D02*Y36500D01*
Y35500D02*X56000D01*
X53000Y33300D02*X56000D01*
X53000D02*X52000Y32600D01*
Y31500D02*Y32600D01*
Y31500D02*X53000Y30800D01*
X56000D01*
X54000D02*Y33300D01*
X52000Y27600D02*X52500Y27100D01*
X52000Y27600D02*Y29100D01*
X52500Y29600D02*X52000Y29100D01*
X52500Y29600D02*X55500D01*
X56000Y29100D01*
Y27600D02*Y29100D01*
Y27600D02*X55500Y27100D01*
X54500D02*X55500D01*
X54000Y27600D02*X54500Y27100D01*
X54000Y27600D02*Y28600D01*
X55500Y25900D02*X52500Y22900D01*
X52000Y19700D02*X52500Y19200D01*
X52000Y19700D02*Y21200D01*
X52500Y21700D02*X52000Y21200D01*
X52500Y21700D02*X53500D01*
X54000Y21200D01*
Y19700D02*Y21200D01*
Y19700D02*X54500Y19200D01*
X55500D01*
X56000Y19700D02*X55500Y19200D01*
X56000Y19700D02*Y21200D01*
X55500Y21700D02*X56000Y21200D01*
X52000Y18000D02*X54000D01*
X56000Y17500D01*
X54000Y16500D01*
X56000Y15500D01*
X54000Y15000D01*
X52000D02*X54000D01*
X52000Y13300D02*X56000D01*
X52000Y12000D02*X52700Y11300D01*
X55300D01*
X56000Y12000D02*X55300Y11300D01*
X56000Y12000D02*Y13800D01*
X52000Y12000D02*Y13800D01*
X5000Y40000D02*X8000D01*
X5000D02*X4000Y39300D01*
Y38200D02*Y39300D01*
Y38200D02*X5000Y37500D01*
X8000D01*
X6000D02*Y40000D01*
X4000Y34300D02*Y36300D01*
Y34300D02*X4500Y33800D01*
X5500D01*
X6000Y34300D02*X5500Y33800D01*
X6000Y34300D02*Y35800D01*
X4000D02*X8000D01*
X6000Y35000D02*X8000Y33800D01*
X4000Y32600D02*X8000D01*
X4000D02*X6000Y31100D01*
X4000Y29600D01*
X8000D01*
Y24600D02*Y25900D01*
X7300Y26600D02*X8000Y25900D01*
X4700Y26600D02*X7300D01*
X4700D02*X4000Y25900D01*
Y24600D02*Y25900D01*
X6500Y23400D02*X7500D01*
X6500D02*X6000Y22900D01*
Y21900D02*Y22900D01*
Y21900D02*X6500Y21400D01*
X7500D01*
X8000Y21900D02*X7500Y21400D01*
X8000Y21900D02*Y22900D01*
X7500Y23400D02*X8000Y22900D01*
X6500Y19700D02*X8000D01*
X6500D02*X6000Y19200D01*
Y18200D02*Y19200D01*
Y20200D02*X6500Y19700D01*
X4000Y16500D02*X7500D01*
X8000Y16000D01*
X5500D02*Y17000D01*
X8000Y13000D02*Y14500D01*
X7500Y15000D02*X8000Y14500D01*
X6500Y15000D02*X7500D01*
X6500D02*X6000Y14500D01*
Y13500D02*Y14500D01*
Y13500D02*X6500Y13000D01*
X7000D02*Y15000D01*
X6500Y13000D02*X7000D01*
X6000Y11800D02*X8000Y9800D01*
Y11800D02*X6000Y9800D01*
X22914Y91003D02*Y53209D01*
X37086Y91003D02*Y76043D01*
Y68957D02*Y53209D01*
X22914D02*X37086D01*
X22914Y91003D02*X37086D01*
X20158Y96909D02*Y47304D01*
X39842Y96909D02*Y76043D01*
Y68957D02*Y47304D01*
X20256Y47205D02*X39842D01*
X20256Y97007D02*X39842D01*
X39448Y76043D02*X39842D01*
X37086D02*X39448D01*
X37086Y68957D02*X39448D01*
X39842D01*
X39448Y76043D02*Y68957D01*
G54D62*X55000Y97500D02*Y47500D01*
X45000D02*X55000D01*
X45000Y97500D02*Y47500D01*
Y97500D02*X55000D01*
X45000D02*Y87500D01*
X55000D01*
X15000Y97500D02*Y47500D01*
X5000D02*X15000D01*
X5000Y97500D02*Y47500D01*
Y97500D02*X15000D01*
X5000D02*Y87500D01*
G54D61*X28330Y101560D02*Y102360D01*
Y101560D02*X31830D01*
X32330Y102060D02*X31830Y101560D01*
X32330Y102060D02*Y102560D01*
X31830Y103060D02*X32330Y102560D01*
X31330Y103060D02*X31830D01*
X29130Y100360D02*X28330Y99560D01*
X32330D01*
Y98860D02*Y100360D01*
M02*
