G04 start of page 3 for group 1 idx 1 *
G04 Title: (unknown), bottom *
G04 Creator: pcb 20140316 *
G04 CreationDate: Wed 10 Feb 2021 06:22:34 PM GMT UTC *
G04 For: tom *
G04 Format: Gerber/RS-274X *
G04 PCB-Dimensions (mil): 600.00 2100.00 *
G04 PCB-Coordinate-Origin: lower left *
%MOIN*%
%FSLAX25Y25*%
%LNBOTTOM*%
%ADD37C,0.0380*%
%ADD36C,0.0170*%
%ADD35C,0.1339*%
%ADD34C,0.0590*%
%ADD33C,0.0160*%
%ADD32C,0.0320*%
%ADD31C,0.0620*%
%ADD30C,0.0001*%
%ADD29C,0.0340*%
%ADD28C,0.3287*%
%ADD27C,0.0250*%
%ADD26C,0.0100*%
G54D26*X35000Y186000D02*Y168500D01*
X30000Y186500D02*Y146000D01*
X35000Y168500D02*X40050Y163450D01*
X39500Y186000D02*Y167500D01*
X10000Y133000D02*X20000Y143000D01*
X6500Y134000D02*X17500Y145000D01*
X20000Y143000D02*Y163500D01*
X17500Y145000D02*Y164500D01*
X30000Y146000D02*X40750Y141250D01*
X49000Y133000D02*X40750Y141250D01*
X42500Y148500D02*Y164500D01*
X40050Y146450D02*Y163450D01*
X42500Y164500D02*X39500Y167500D01*
X49364Y52864D02*X55364D01*
X50000Y62500D02*X53500D01*
X55364Y52864D02*X57500Y55000D01*
X10000Y72500D02*X13500D01*
G54D27*X27500Y67500D02*X10000Y62500D01*
X27500D02*X10000Y52500D01*
G54D26*X24500Y77500D02*X22000Y80000D01*
X27500Y77500D02*X24500D01*
G54D27*X27500Y72500D02*X10000D01*
X27500Y82500D02*X10000Y92500D01*
X27500Y77500D02*X10000Y82500D01*
G54D26*Y133000D02*Y117000D01*
X6500Y116000D02*Y133000D01*
X49000Y117000D02*Y133000D01*
X10000Y117000D02*X37500Y89500D01*
X32500Y90000D02*X6500Y116000D01*
Y132500D02*Y134000D01*
X46500Y72500D02*X50000D01*
X49500D02*X44000D01*
X41000Y75500D01*
X53500Y62500D02*X55000Y64000D01*
X32500Y86000D02*Y82500D01*
X37500Y80000D02*X35000Y77500D01*
X32500D01*
Y84000D02*Y90000D01*
X37500Y80000D02*Y89500D01*
X57500Y55000D02*Y131000D01*
X55000Y64000D02*Y130000D01*
X41000Y75500D02*Y109000D01*
X55000Y129900D02*Y131500D01*
X41000Y109000D02*X49000Y117000D01*
X55000Y129800D02*Y130000D01*
Y129900D02*Y130200D01*
Y129400D02*Y130200D01*
X57500Y130500D02*Y133500D01*
X42500Y148500D01*
X55000Y131500D02*X40050Y146450D01*
X20000Y167000D02*X17500Y164500D01*
X20000Y167000D02*Y197000D01*
X24500Y195500D02*X25000Y195000D01*
Y168500D02*Y195000D01*
X20000Y163500D02*X25000Y168500D01*
X35000Y185500D02*Y195500D01*
X30200Y198000D02*X30000Y197800D01*
Y186600D01*
G54D28*X29500Y125000D03*
G54D29*X27500Y82500D03*
Y77500D03*
G54D28*X30000Y25000D03*
G54D29*X27500Y72500D03*
Y67500D03*
Y62500D03*
X32500D03*
Y67500D03*
Y72500D03*
Y77500D03*
G54D30*G36*
X30800Y84200D02*Y80800D01*
X34200D01*
Y84200D01*
X30800D01*
G37*
G54D31*X10000Y92500D03*
Y82500D03*
Y72500D03*
Y62500D03*
Y52500D03*
G54D30*G36*
X46900Y95600D02*Y89400D01*
X53100D01*
Y95600D01*
X46900D01*
G37*
G54D31*X50000Y82500D03*
Y72500D03*
Y62500D03*
Y52500D03*
G54D32*X24500Y195500D03*
X39500Y186000D03*
X35000Y195500D03*
X20000Y197000D03*
X30200Y198000D03*
G54D33*G54D34*G54D35*G54D36*G54D35*G54D36*G54D37*M02*
