M48
INCH
T38C0.012
T37C0.038
T36C0.017
T35C0.134
%
T38
X002200Y018700
X002550Y018700
X003000Y018700
X003500Y018700
X004000Y018700
T36
X002750Y008250
X002750Y007750
X002750Y007250
X002750Y006750
X002750Y006250
X003250Y008250
X003250Y007750
X003250Y007250
X003250Y006750
X003250Y006250
T37
X001000Y009250
X001000Y008250
X001000Y007250
X001000Y006250
X001000Y005250
X005000Y009250
X005000Y008250
X005000Y007250
X005000Y006250
X005000Y005250
T35
X002950Y012500
X003000Y002500
M30
