G04 start of page 12 for group -3984 idx -3984 *
G04 Title: (unknown), fab *
G04 Creator: pcb 20140316 *
G04 CreationDate: Wed 10 Feb 2021 01:22:49 AM GMT UTC *
G04 For: tom *
G04 Format: Gerber/RS-274X *
G04 PCB-Dimensions (mil): 600.00 2100.00 *
G04 PCB-Coordinate-Origin: lower left *
%MOIN*%
%FSLAX25Y25*%
%LNFAB*%
%ADD61C,0.0100*%
%ADD60C,0.0075*%
%ADD59C,0.0060*%
%ADD58R,0.0080X0.0080*%
G54D58*X28400Y26600D02*X31600D01*
X28400D02*Y23400D01*
X31600D01*
Y26600D02*Y23400D01*
X27900Y126600D02*X31100D01*
X27900D02*Y123400D01*
X31100D01*
Y126600D02*Y123400D01*
X13400Y222850D02*X16600D01*
X13400D02*Y219650D01*
X16600D01*
Y222850D02*Y219650D01*
G54D59*X135000Y223500D02*X136500Y220500D01*
X138000Y223500D01*
X136500Y220500D02*Y217500D01*
X139800Y220800D02*X142050D01*
X139800Y217500D02*X142800D01*
X139800Y223500D02*Y217500D01*
Y223500D02*X142800D01*
X147600D02*X148350Y222750D01*
X145350Y223500D02*X147600D01*
X144600Y222750D02*X145350Y223500D01*
X144600Y222750D02*Y221250D01*
X145350Y220500D01*
X147600D01*
X148350Y219750D01*
Y218250D01*
X147600Y217500D02*X148350Y218250D01*
X145350Y217500D02*X147600D01*
X144600Y218250D02*X145350Y217500D01*
X98000Y222750D02*X98750Y223500D01*
X101000D01*
X101750Y222750D01*
Y221250D01*
X98000Y217500D02*X101750Y221250D01*
X98000Y217500D02*X101750D01*
X45000Y218250D02*X45750Y217500D01*
X45000Y222750D02*Y218250D01*
Y222750D02*X45750Y223500D01*
X47250D01*
X48000Y222750D01*
Y218250D01*
X47250Y217500D02*X48000Y218250D01*
X45750Y217500D02*X47250D01*
X45000Y219000D02*X48000Y222000D01*
X49800Y217500D02*X50550D01*
X52350Y222300D02*X53550Y223500D01*
Y217500D01*
X52350D02*X54600D01*
X56400Y222750D02*X57150Y223500D01*
X58650D01*
X59400Y222750D01*
X58650Y217500D02*X59400Y218250D01*
X57150Y217500D02*X58650D01*
X56400Y218250D02*X57150Y217500D01*
Y220800D02*X58650D01*
X59400Y222750D02*Y221550D01*
Y220050D02*Y218250D01*
Y220050D02*X58650Y220800D01*
X59400Y221550D02*X58650Y220800D01*
X61200Y219750D02*X64200Y223500D01*
X61200Y219750D02*X64950D01*
X64200Y223500D02*Y217500D01*
X24200Y203550D02*G75*G03X25800Y203550I800J0D01*G01*
G75*G03X24200Y203550I-800J0D01*G01*
X34200D02*G75*G03X35800Y203550I800J0D01*G01*
G75*G03X34200Y203550I-800J0D01*G01*
Y151550D02*G75*G03X35800Y151550I800J0D01*G01*
G75*G03X34200Y151550I-800J0D01*G01*
X24200D02*G75*G03X25800Y151550I800J0D01*G01*
G75*G03X24200Y151550I-800J0D01*G01*
X14200Y236250D02*G75*G03X15800Y236250I800J0D01*G01*
G75*G03X14200Y236250I-800J0D01*G01*
X140000Y238500D02*Y232500D01*
Y238500D02*X143750Y232500D01*
Y238500D02*Y232500D01*
X145550Y237750D02*Y233250D01*
Y237750D02*X146300Y238500D01*
X147800D01*
X148550Y237750D01*
Y233250D01*
X147800Y232500D02*X148550Y233250D01*
X146300Y232500D02*X147800D01*
X145550Y233250D02*X146300Y232500D01*
X98000Y234750D02*X101000Y238500D01*
X98000Y234750D02*X101750D01*
X101000Y238500D02*Y232500D01*
X45000Y233250D02*X45750Y232500D01*
X45000Y237750D02*Y233250D01*
Y237750D02*X45750Y238500D01*
X47250D01*
X48000Y237750D01*
Y233250D01*
X47250Y232500D02*X48000Y233250D01*
X45750Y232500D02*X47250D01*
X45000Y234000D02*X48000Y237000D01*
X49800Y232500D02*X50550D01*
X52350Y233250D02*X53100Y232500D01*
X52350Y237750D02*Y233250D01*
Y237750D02*X53100Y238500D01*
X54600D01*
X55350Y237750D01*
Y233250D01*
X54600Y232500D02*X55350Y233250D01*
X53100Y232500D02*X54600D01*
X52350Y234000D02*X55350Y237000D01*
X57150Y238500D02*X60150D01*
X57150D02*Y235500D01*
X57900Y236250D01*
X59400D01*
X60150Y235500D01*
Y233250D01*
X59400Y232500D02*X60150Y233250D01*
X57900Y232500D02*X59400D01*
X57150Y233250D02*X57900Y232500D01*
X62700D02*X64950Y235500D01*
Y237750D02*Y235500D01*
X64200Y238500D02*X64950Y237750D01*
X62700Y238500D02*X64200D01*
X61950Y237750D02*X62700Y238500D01*
X61950Y237750D02*Y236250D01*
X62700Y235500D01*
X64950D01*
X48800Y93700D02*X51200Y91300D01*
X48800D02*X51200Y93700D01*
X48800Y83700D02*X51200Y81300D01*
X48800D02*X51200Y83700D01*
X48800Y73700D02*X51200Y71300D01*
X48800D02*X51200Y73700D01*
X48800Y63700D02*X51200Y61300D01*
X48800D02*X51200Y63700D01*
X48800Y53700D02*X51200Y51300D01*
X48800D02*X51200Y53700D01*
X8800Y93700D02*X11200Y91300D01*
X8800D02*X11200Y93700D01*
X8800Y83700D02*X11200Y81300D01*
X8800D02*X11200Y83700D01*
X8800Y73700D02*X11200Y71300D01*
X8800D02*X11200Y73700D01*
X8800Y63700D02*X11200Y61300D01*
X8800D02*X11200Y63700D01*
X8800Y53700D02*X11200Y51300D01*
X8800D02*X11200Y53700D01*
X13800Y252450D02*X16200Y250050D01*
X13800D02*X16200Y252450D01*
X135000Y253500D02*X136500Y250500D01*
X138000Y253500D01*
X136500Y250500D02*Y247500D01*
X139800Y250800D02*X142050D01*
X139800Y247500D02*X142800D01*
X139800Y253500D02*Y247500D01*
Y253500D02*X142800D01*
X147600D02*X148350Y252750D01*
X145350Y253500D02*X147600D01*
X144600Y252750D02*X145350Y253500D01*
X144600Y252750D02*Y251250D01*
X145350Y250500D01*
X147600D01*
X148350Y249750D01*
Y248250D01*
X147600Y247500D02*X148350Y248250D01*
X145350Y247500D02*X147600D01*
X144600Y248250D02*X145350Y247500D01*
X98000Y252300D02*X99200Y253500D01*
Y247500D01*
X98000D02*X100250D01*
X102050Y248250D02*X102800Y247500D01*
X102050Y252750D02*Y248250D01*
Y252750D02*X102800Y253500D01*
X104300D01*
X105050Y252750D01*
Y248250D01*
X104300Y247500D02*X105050Y248250D01*
X102800Y247500D02*X104300D01*
X102050Y249000D02*X105050Y252000D01*
X45000Y248250D02*X45750Y247500D01*
X45000Y252750D02*Y248250D01*
Y252750D02*X45750Y253500D01*
X47250D01*
X48000Y252750D01*
Y248250D01*
X47250Y247500D02*X48000Y248250D01*
X45750Y247500D02*X47250D01*
X45000Y249000D02*X48000Y252000D01*
X49800Y247500D02*X50550D01*
X52350Y248250D02*X53100Y247500D01*
X52350Y252750D02*Y248250D01*
Y252750D02*X53100Y253500D01*
X54600D01*
X55350Y252750D01*
Y248250D01*
X54600Y247500D02*X55350Y248250D01*
X53100Y247500D02*X54600D01*
X52350Y249000D02*X55350Y252000D01*
X57150Y252750D02*X57900Y253500D01*
X59400D01*
X60150Y252750D01*
X59400Y247500D02*X60150Y248250D01*
X57900Y247500D02*X59400D01*
X57150Y248250D02*X57900Y247500D01*
Y250800D02*X59400D01*
X60150Y252750D02*Y251550D01*
Y250050D02*Y248250D01*
Y250050D02*X59400Y250800D01*
X60150Y251550D02*X59400Y250800D01*
X61950Y248250D02*X62700Y247500D01*
X61950Y249450D02*Y248250D01*
Y249450D02*X63000Y250500D01*
X63900D01*
X64950Y249450D01*
Y248250D01*
X64200Y247500D02*X64950Y248250D01*
X62700Y247500D02*X64200D01*
X61950Y251550D02*X63000Y250500D01*
X61950Y252750D02*Y251550D01*
Y252750D02*X62700Y253500D01*
X64200D01*
X64950Y252750D01*
Y251550D01*
X63900Y250500D02*X64950Y251550D01*
X27500Y84100D02*Y80900D01*
X25900Y82500D02*X29100D01*
X27500Y79100D02*Y75900D01*
X25900Y77500D02*X29100D01*
X27500Y74100D02*Y70900D01*
X25900Y72500D02*X29100D01*
X27500Y69100D02*Y65900D01*
X25900Y67500D02*X29100D01*
X27500Y64100D02*Y60900D01*
X25900Y62500D02*X29100D01*
X32500Y64100D02*Y60900D01*
X30900Y62500D02*X34100D01*
X32500Y69100D02*Y65900D01*
X30900Y67500D02*X34100D01*
X32500Y74100D02*Y70900D01*
X30900Y72500D02*X34100D01*
X32500Y79100D02*Y75900D01*
X30900Y77500D02*X34100D01*
X32500Y84100D02*Y80900D01*
X30900Y82500D02*X34100D01*
X15000Y267850D02*Y264650D01*
X13400Y266250D02*X16600D01*
X135000Y268500D02*X136500Y265500D01*
X138000Y268500D01*
X136500Y265500D02*Y262500D01*
X139800Y265800D02*X142050D01*
X139800Y262500D02*X142800D01*
X139800Y268500D02*Y262500D01*
Y268500D02*X142800D01*
X147600D02*X148350Y267750D01*
X145350Y268500D02*X147600D01*
X144600Y267750D02*X145350Y268500D01*
X144600Y267750D02*Y266250D01*
X145350Y265500D01*
X147600D01*
X148350Y264750D01*
Y263250D01*
X147600Y262500D02*X148350Y263250D01*
X145350Y262500D02*X147600D01*
X144600Y263250D02*X145350Y262500D01*
X98000Y267300D02*X99200Y268500D01*
Y262500D01*
X98000D02*X100250D01*
X102050Y263250D02*X102800Y262500D01*
X102050Y267750D02*Y263250D01*
Y267750D02*X102800Y268500D01*
X104300D01*
X105050Y267750D01*
Y263250D01*
X104300Y262500D02*X105050Y263250D01*
X102800Y262500D02*X104300D01*
X102050Y264000D02*X105050Y267000D01*
X45000Y263250D02*X45750Y262500D01*
X45000Y267750D02*Y263250D01*
Y267750D02*X45750Y268500D01*
X47250D01*
X48000Y267750D01*
Y263250D01*
X47250Y262500D02*X48000Y263250D01*
X45750Y262500D02*X47250D01*
X45000Y264000D02*X48000Y267000D01*
X49800Y262500D02*X50550D01*
X52350Y263250D02*X53100Y262500D01*
X52350Y267750D02*Y263250D01*
Y267750D02*X53100Y268500D01*
X54600D01*
X55350Y267750D01*
Y263250D01*
X54600Y262500D02*X55350Y263250D01*
X53100Y262500D02*X54600D01*
X52350Y264000D02*X55350Y267000D01*
X57150Y267300D02*X58350Y268500D01*
Y262500D01*
X57150D02*X59400D01*
X61950D02*X64950Y268500D01*
X61200D02*X64950D01*
X22000Y187000D02*Y185400D01*
Y187000D02*X23387Y187800D01*
X22000Y187000D02*X20613Y187800D01*
X30000Y187000D02*Y185400D01*
Y187000D02*X31387Y187800D01*
X30000Y187000D02*X28613Y187800D01*
X35000Y187000D02*Y185400D01*
Y187000D02*X36387Y187800D01*
X35000Y187000D02*X33613Y187800D01*
X40000Y187000D02*Y185400D01*
Y187000D02*X41387Y187800D01*
X40000Y187000D02*X38613Y187800D01*
X25500Y187000D02*Y185400D01*
Y187000D02*X26887Y187800D01*
X25500Y187000D02*X24113Y187800D01*
X15000Y281250D02*Y279650D01*
Y281250D02*X16387Y282050D01*
X15000Y281250D02*X13613Y282050D01*
X135000Y283500D02*X136500Y280500D01*
X138000Y283500D01*
X136500Y280500D02*Y277500D01*
X139800Y280800D02*X142050D01*
X139800Y277500D02*X142800D01*
X139800Y283500D02*Y277500D01*
Y283500D02*X142800D01*
X147600D02*X148350Y282750D01*
X145350Y283500D02*X147600D01*
X144600Y282750D02*X145350Y283500D01*
X144600Y282750D02*Y281250D01*
X145350Y280500D01*
X147600D01*
X148350Y279750D01*
Y278250D01*
X147600Y277500D02*X148350Y278250D01*
X145350Y277500D02*X147600D01*
X144600Y278250D02*X145350Y277500D01*
X98000Y283500D02*X101000D01*
X98000D02*Y280500D01*
X98750Y281250D01*
X100250D01*
X101000Y280500D01*
Y278250D01*
X100250Y277500D02*X101000Y278250D01*
X98750Y277500D02*X100250D01*
X98000Y278250D02*X98750Y277500D01*
X45000Y278250D02*X45750Y277500D01*
X45000Y282750D02*Y278250D01*
Y282750D02*X45750Y283500D01*
X47250D01*
X48000Y282750D01*
Y278250D01*
X47250Y277500D02*X48000Y278250D01*
X45750Y277500D02*X47250D01*
X45000Y279000D02*X48000Y282000D01*
X49800Y277500D02*X50550D01*
X52350Y278250D02*X53100Y277500D01*
X52350Y282750D02*Y278250D01*
Y282750D02*X53100Y283500D01*
X54600D01*
X55350Y282750D01*
Y278250D01*
X54600Y277500D02*X55350Y278250D01*
X53100Y277500D02*X54600D01*
X52350Y279000D02*X55350Y282000D01*
X57150Y282300D02*X58350Y283500D01*
Y277500D01*
X57150D02*X59400D01*
X61200Y282750D02*X61950Y283500D01*
X64200D01*
X64950Y282750D01*
Y281250D01*
X61200Y277500D02*X64950Y281250D01*
X61200Y277500D02*X64950D01*
X3000Y298500D02*X3750Y297750D01*
X750Y298500D02*X3000D01*
X0Y297750D02*X750Y298500D01*
X0Y297750D02*Y296250D01*
X750Y295500D01*
X3000D01*
X3750Y294750D01*
Y293250D01*
X3000Y292500D02*X3750Y293250D01*
X750Y292500D02*X3000D01*
X0Y293250D02*X750Y292500D01*
X5550Y295500D02*Y293250D01*
X6300Y292500D01*
X8550Y295500D02*Y291000D01*
X7800Y290250D02*X8550Y291000D01*
X6300Y290250D02*X7800D01*
X5550Y291000D02*X6300Y290250D01*
Y292500D02*X7800D01*
X8550Y293250D01*
X11100Y294750D02*Y292500D01*
Y294750D02*X11850Y295500D01*
X12600D01*
X13350Y294750D01*
Y292500D01*
Y294750D02*X14100Y295500D01*
X14850D01*
X15600Y294750D01*
Y292500D01*
X10350Y295500D02*X11100Y294750D01*
X17400Y298500D02*Y292500D01*
Y293250D02*X18150Y292500D01*
X19650D01*
X20400Y293250D01*
Y294750D02*Y293250D01*
X19650Y295500D02*X20400Y294750D01*
X18150Y295500D02*X19650D01*
X17400Y294750D02*X18150Y295500D01*
X22200Y294750D02*Y293250D01*
Y294750D02*X22950Y295500D01*
X24450D01*
X25200Y294750D01*
Y293250D01*
X24450Y292500D02*X25200Y293250D01*
X22950Y292500D02*X24450D01*
X22200Y293250D02*X22950Y292500D01*
X27000Y298500D02*Y293250D01*
X27750Y292500D01*
X0Y289250D02*X29250D01*
X41750Y298500D02*Y292500D01*
X43700Y298500D02*X44750Y297450D01*
Y293550D01*
X43700Y292500D02*X44750Y293550D01*
X41000Y292500D02*X43700D01*
X41000Y298500D02*X43700D01*
G54D60*X46550Y297000D02*Y296850D01*
G54D59*Y294750D02*Y292500D01*
X50300Y295500D02*X51050Y294750D01*
X48800Y295500D02*X50300D01*
X48050Y294750D02*X48800Y295500D01*
X48050Y294750D02*Y293250D01*
X48800Y292500D01*
X51050Y295500D02*Y293250D01*
X51800Y292500D01*
X48800D02*X50300D01*
X51050Y293250D01*
X54350Y294750D02*Y292500D01*
Y294750D02*X55100Y295500D01*
X55850D01*
X56600Y294750D01*
Y292500D01*
Y294750D02*X57350Y295500D01*
X58100D01*
X58850Y294750D01*
Y292500D01*
X53600Y295500D02*X54350Y294750D01*
X60650Y292500D02*X61400D01*
X65900Y293250D02*X66650Y292500D01*
X65900Y297750D02*X66650Y298500D01*
X65900Y297750D02*Y293250D01*
X68450Y298500D02*X69950D01*
X69200D02*Y292500D01*
X68450D02*X69950D01*
X72500Y294750D02*Y292500D01*
Y294750D02*X73250Y295500D01*
X74000D01*
X74750Y294750D01*
Y292500D01*
X71750Y295500D02*X72500Y294750D01*
X77300Y295500D02*X79550D01*
X76550Y294750D02*X77300Y295500D01*
X76550Y294750D02*Y293250D01*
X77300Y292500D01*
X79550D01*
X81350Y298500D02*Y292500D01*
Y294750D02*X82100Y295500D01*
X83600D01*
X84350Y294750D01*
Y292500D01*
X86150Y298500D02*X86900Y297750D01*
Y293250D01*
X86150Y292500D02*X86900Y293250D01*
X41000Y289250D02*X88700D01*
X96050Y292500D02*X98000D01*
X95000Y293550D02*X96050Y292500D01*
X95000Y297450D02*Y293550D01*
Y297450D02*X96050Y298500D01*
X98000D01*
X99800Y294750D02*Y293250D01*
Y294750D02*X100550Y295500D01*
X102050D01*
X102800Y294750D01*
Y293250D01*
X102050Y292500D02*X102800Y293250D01*
X100550Y292500D02*X102050D01*
X99800Y293250D02*X100550Y292500D01*
X104600Y295500D02*Y293250D01*
X105350Y292500D01*
X106850D01*
X107600Y293250D01*
Y295500D02*Y293250D01*
X110150Y294750D02*Y292500D01*
Y294750D02*X110900Y295500D01*
X111650D01*
X112400Y294750D01*
Y292500D01*
X109400Y295500D02*X110150Y294750D01*
X114950Y298500D02*Y293250D01*
X115700Y292500D01*
X114200Y296250D02*X115700D01*
X95000Y289250D02*X117200D01*
X130750Y298500D02*Y292500D01*
X130000Y298500D02*X133000D01*
X133750Y297750D01*
Y296250D01*
X133000Y295500D02*X133750Y296250D01*
X130750Y295500D02*X133000D01*
X135550Y298500D02*Y293250D01*
X136300Y292500D01*
X140050Y295500D02*X140800Y294750D01*
X138550Y295500D02*X140050D01*
X137800Y294750D02*X138550Y295500D01*
X137800Y294750D02*Y293250D01*
X138550Y292500D01*
X140800Y295500D02*Y293250D01*
X141550Y292500D01*
X138550D02*X140050D01*
X140800Y293250D01*
X144100Y298500D02*Y293250D01*
X144850Y292500D01*
X143350Y296250D02*X144850D01*
X147100Y292500D02*X149350D01*
X146350Y293250D02*X147100Y292500D01*
X146350Y294750D02*Y293250D01*
Y294750D02*X147100Y295500D01*
X148600D01*
X149350Y294750D01*
X146350Y294000D02*X149350D01*
Y294750D02*Y294000D01*
X154150Y298500D02*Y292500D01*
X153400D02*X154150Y293250D01*
X151900Y292500D02*X153400D01*
X151150Y293250D02*X151900Y292500D01*
X151150Y294750D02*Y293250D01*
Y294750D02*X151900Y295500D01*
X153400D01*
X154150Y294750D01*
X157450Y295500D02*Y294750D01*
Y293250D02*Y292500D01*
X155950Y297750D02*Y297000D01*
Y297750D02*X156700Y298500D01*
X158200D01*
X158950Y297750D01*
Y297000D01*
X157450Y295500D02*X158950Y297000D01*
X130000Y289250D02*X160750D01*
X0Y313500D02*X3000D01*
X1500D02*Y307500D01*
X4800Y313500D02*Y307500D01*
Y309750D02*X5550Y310500D01*
X7050D01*
X7800Y309750D01*
Y307500D01*
X10350D02*X12600D01*
X9600Y308250D02*X10350Y307500D01*
X9600Y309750D02*Y308250D01*
Y309750D02*X10350Y310500D01*
X11850D01*
X12600Y309750D01*
X9600Y309000D02*X12600D01*
Y309750D02*Y309000D01*
X15150Y309750D02*Y307500D01*
Y309750D02*X15900Y310500D01*
X17400D01*
X14400D02*X15150Y309750D01*
X19950Y307500D02*X22200D01*
X19200Y308250D02*X19950Y307500D01*
X19200Y309750D02*Y308250D01*
Y309750D02*X19950Y310500D01*
X21450D01*
X22200Y309750D01*
X19200Y309000D02*X22200D01*
Y309750D02*Y309000D01*
X28950Y310500D02*X29700Y309750D01*
X27450Y310500D02*X28950D01*
X26700Y309750D02*X27450Y310500D01*
X26700Y309750D02*Y308250D01*
X27450Y307500D01*
X29700Y310500D02*Y308250D01*
X30450Y307500D01*
X27450D02*X28950D01*
X29700Y308250D01*
X33000Y309750D02*Y307500D01*
Y309750D02*X33750Y310500D01*
X35250D01*
X32250D02*X33000Y309750D01*
X37800Y307500D02*X40050D01*
X37050Y308250D02*X37800Y307500D01*
X37050Y309750D02*Y308250D01*
Y309750D02*X37800Y310500D01*
X39300D01*
X40050Y309750D01*
X37050Y309000D02*X40050D01*
Y309750D02*Y309000D01*
X44550Y313500D02*X47550D01*
X44550D02*Y310500D01*
X45300Y311250D01*
X46800D01*
X47550Y310500D01*
Y308250D01*
X46800Y307500D02*X47550Y308250D01*
X45300Y307500D02*X46800D01*
X44550Y308250D02*X45300Y307500D01*
X55050Y313500D02*Y307500D01*
X54300D02*X55050Y308250D01*
X52800Y307500D02*X54300D01*
X52050Y308250D02*X52800Y307500D01*
X52050Y309750D02*Y308250D01*
Y309750D02*X52800Y310500D01*
X54300D01*
X55050Y309750D01*
G54D60*X56850Y312000D02*Y311850D01*
G54D59*Y309750D02*Y307500D01*
X59100Y312750D02*Y307500D01*
Y312750D02*X59850Y313500D01*
X60600D01*
X58350Y310500D02*X59850D01*
X62850Y312750D02*Y307500D01*
Y312750D02*X63600Y313500D01*
X64350D01*
X62100Y310500D02*X63600D01*
X66600Y307500D02*X68850D01*
X65850Y308250D02*X66600Y307500D01*
X65850Y309750D02*Y308250D01*
Y309750D02*X66600Y310500D01*
X68100D01*
X68850Y309750D01*
X65850Y309000D02*X68850D01*
Y309750D02*Y309000D01*
X71400Y309750D02*Y307500D01*
Y309750D02*X72150Y310500D01*
X73650D01*
X70650D02*X71400Y309750D01*
X76200Y307500D02*X78450D01*
X75450Y308250D02*X76200Y307500D01*
X75450Y309750D02*Y308250D01*
Y309750D02*X76200Y310500D01*
X77700D01*
X78450Y309750D01*
X75450Y309000D02*X78450D01*
Y309750D02*Y309000D01*
X81000Y309750D02*Y307500D01*
Y309750D02*X81750Y310500D01*
X82500D01*
X83250Y309750D01*
Y307500D01*
X80250Y310500D02*X81000Y309750D01*
X85800Y313500D02*Y308250D01*
X86550Y307500D01*
X85050Y311250D02*X86550D01*
X93750Y313500D02*Y307500D01*
X93000D02*X93750Y308250D01*
X91500Y307500D02*X93000D01*
X90750Y308250D02*X91500Y307500D01*
X90750Y309750D02*Y308250D01*
Y309750D02*X91500Y310500D01*
X93000D01*
X93750Y309750D01*
X96300D02*Y307500D01*
Y309750D02*X97050Y310500D01*
X98550D01*
X95550D02*X96300Y309750D01*
G54D60*X100350Y312000D02*Y311850D01*
G54D59*Y309750D02*Y307500D01*
X101850Y313500D02*Y308250D01*
X102600Y307500D01*
X104100Y313500D02*Y308250D01*
X104850Y307500D01*
X109800D02*X112050D01*
X112800Y308250D01*
X112050Y309000D02*X112800Y308250D01*
X109800Y309000D02*X112050D01*
X109050Y309750D02*X109800Y309000D01*
X109050Y309750D02*X109800Y310500D01*
X112050D01*
X112800Y309750D01*
X109050Y308250D02*X109800Y307500D01*
G54D60*X114600Y312000D02*Y311850D01*
G54D59*Y309750D02*Y307500D01*
X116100Y310500D02*X119100D01*
X116100Y307500D02*X119100Y310500D01*
X116100Y307500D02*X119100D01*
X121650D02*X123900D01*
X120900Y308250D02*X121650Y307500D01*
X120900Y309750D02*Y308250D01*
Y309750D02*X121650Y310500D01*
X123150D01*
X123900Y309750D01*
X120900Y309000D02*X123900D01*
Y309750D02*Y309000D01*
X126450Y307500D02*X128700D01*
X129450Y308250D01*
X128700Y309000D02*X129450Y308250D01*
X126450Y309000D02*X128700D01*
X125700Y309750D02*X126450Y309000D01*
X125700Y309750D02*X126450Y310500D01*
X128700D01*
X129450Y309750D01*
X125700Y308250D02*X126450Y307500D01*
X133950Y310500D02*Y308250D01*
X134700Y307500D01*
X136200D01*
X136950Y308250D01*
Y310500D02*Y308250D01*
X139500Y307500D02*X141750D01*
X142500Y308250D01*
X141750Y309000D02*X142500Y308250D01*
X139500Y309000D02*X141750D01*
X138750Y309750D02*X139500Y309000D01*
X138750Y309750D02*X139500Y310500D01*
X141750D01*
X142500Y309750D01*
X138750Y308250D02*X139500Y307500D01*
X145050D02*X147300D01*
X144300Y308250D02*X145050Y307500D01*
X144300Y309750D02*Y308250D01*
Y309750D02*X145050Y310500D01*
X146550D01*
X147300Y309750D01*
X144300Y309000D02*X147300D01*
Y309750D02*Y309000D01*
X152100Y313500D02*Y307500D01*
X151350D02*X152100Y308250D01*
X149850Y307500D02*X151350D01*
X149100Y308250D02*X149850Y307500D01*
X149100Y309750D02*Y308250D01*
Y309750D02*X149850Y310500D01*
X151350D01*
X152100Y309750D01*
G54D60*X156600Y312000D02*Y311850D01*
G54D59*Y309750D02*Y307500D01*
X158850Y309750D02*Y307500D01*
Y309750D02*X159600Y310500D01*
X160350D01*
X161100Y309750D01*
Y307500D01*
X158100Y310500D02*X158850Y309750D01*
X166350Y313500D02*Y308250D01*
X167100Y307500D01*
X165600Y311250D02*X167100D01*
X168600Y313500D02*Y307500D01*
Y309750D02*X169350Y310500D01*
X170850D01*
X171600Y309750D01*
Y307500D01*
G54D60*X173400Y312000D02*Y311850D01*
G54D59*Y309750D02*Y307500D01*
X175650D02*X177900D01*
X178650Y308250D01*
X177900Y309000D02*X178650Y308250D01*
X175650Y309000D02*X177900D01*
X174900Y309750D02*X175650Y309000D01*
X174900Y309750D02*X175650Y310500D01*
X177900D01*
X178650Y309750D01*
X174900Y308250D02*X175650Y307500D01*
X183150Y313500D02*Y308250D01*
X183900Y307500D01*
X187650Y310500D02*X188400Y309750D01*
X186150Y310500D02*X187650D01*
X185400Y309750D02*X186150Y310500D01*
X185400Y309750D02*Y308250D01*
X186150Y307500D01*
X188400Y310500D02*Y308250D01*
X189150Y307500D01*
X186150D02*X187650D01*
X188400Y308250D01*
X190950Y310500D02*Y308250D01*
X191700Y307500D01*
X193950Y310500D02*Y306000D01*
X193200Y305250D02*X193950Y306000D01*
X191700Y305250D02*X193200D01*
X190950Y306000D02*X191700Y305250D01*
Y307500D02*X193200D01*
X193950Y308250D01*
X195750Y309750D02*Y308250D01*
Y309750D02*X196500Y310500D01*
X198000D01*
X198750Y309750D01*
Y308250D01*
X198000Y307500D02*X198750Y308250D01*
X196500Y307500D02*X198000D01*
X195750Y308250D02*X196500Y307500D01*
X200550Y310500D02*Y308250D01*
X201300Y307500D01*
X202800D01*
X203550Y308250D01*
Y310500D02*Y308250D01*
X206100Y313500D02*Y308250D01*
X206850Y307500D01*
X205350Y311250D02*X206850D01*
X208350Y306000D02*X209850Y307500D01*
X214350Y312750D02*X215100Y313500D01*
X216600D01*
X217350Y312750D01*
X216600Y307500D02*X217350Y308250D01*
X215100Y307500D02*X216600D01*
X214350Y308250D02*X215100Y307500D01*
Y310800D02*X216600D01*
X217350Y312750D02*Y311550D01*
Y310050D02*Y308250D01*
Y310050D02*X216600Y310800D01*
X217350Y311550D02*X216600Y310800D01*
X219150Y312300D02*X220350Y313500D01*
Y307500D01*
X219150D02*X221400D01*
X225900Y313500D02*Y307500D01*
Y309750D02*X226650Y310500D01*
X228150D01*
X228900Y309750D01*
Y307500D01*
X230700Y309750D02*Y308250D01*
Y309750D02*X231450Y310500D01*
X232950D01*
X233700Y309750D01*
Y308250D01*
X232950Y307500D02*X233700Y308250D01*
X231450Y307500D02*X232950D01*
X230700Y308250D02*X231450Y307500D01*
X235500Y313500D02*Y308250D01*
X236250Y307500D01*
X238500D02*X240750D01*
X237750Y308250D02*X238500Y307500D01*
X237750Y309750D02*Y308250D01*
Y309750D02*X238500Y310500D01*
X240000D01*
X240750Y309750D01*
X237750Y309000D02*X240750D01*
Y309750D02*Y309000D01*
X243300Y307500D02*X245550D01*
X246300Y308250D01*
X245550Y309000D02*X246300Y308250D01*
X243300Y309000D02*X245550D01*
X242550Y309750D02*X243300Y309000D01*
X242550Y309750D02*X243300Y310500D01*
X245550D01*
X246300Y309750D01*
X242550Y308250D02*X243300Y307500D01*
X251550Y313500D02*Y308250D01*
X252300Y307500D01*
X250800Y311250D02*X252300D01*
X253800Y309750D02*Y308250D01*
Y309750D02*X254550Y310500D01*
X256050D01*
X256800Y309750D01*
Y308250D01*
X256050Y307500D02*X256800Y308250D01*
X254550Y307500D02*X256050D01*
X253800Y308250D02*X254550Y307500D01*
X259350Y313500D02*Y308250D01*
X260100Y307500D01*
X258600Y311250D02*X260100D01*
X263850Y310500D02*X264600Y309750D01*
X262350Y310500D02*X263850D01*
X261600Y309750D02*X262350Y310500D01*
X261600Y309750D02*Y308250D01*
X262350Y307500D01*
X264600Y310500D02*Y308250D01*
X265350Y307500D01*
X262350D02*X263850D01*
X264600Y308250D01*
X267150Y313500D02*Y308250D01*
X267900Y307500D01*
G54D61*X43000Y210000D02*X17000D01*
X10000Y0D02*X50000D01*
X0Y10000D02*Y135000D01*
X60000D02*Y10000D01*
X45000Y208000D02*Y150000D01*
X15000Y208000D02*Y150000D01*
X0Y135000D01*
X45000Y150000D02*X60000Y135000D01*
X43000Y210000D02*G75*G02X45000Y208000I0J-2000D01*G01*
X17000Y210000D02*G75*G03X15000Y208000I0J-2000D01*G01*
X60000Y10000D02*G75*G02X50000Y0I-10000J0D01*G01*
X0Y10000D02*G75*G03X10000Y0I10000J0D01*G01*
G54D59*X0Y-9500D02*X3000D01*
X3750Y-8750D01*
Y-6950D02*Y-8750D01*
X3000Y-6200D02*X3750Y-6950D01*
X750Y-6200D02*X3000D01*
X750Y-3500D02*Y-9500D01*
X0Y-3500D02*X3000D01*
X3750Y-4250D01*
Y-5450D01*
X3000Y-6200D02*X3750Y-5450D01*
X5550Y-7250D02*Y-8750D01*
Y-7250D02*X6300Y-6500D01*
X7800D01*
X8550Y-7250D01*
Y-8750D01*
X7800Y-9500D02*X8550Y-8750D01*
X6300Y-9500D02*X7800D01*
X5550Y-8750D02*X6300Y-9500D01*
X12600Y-6500D02*X13350Y-7250D01*
X11100Y-6500D02*X12600D01*
X10350Y-7250D02*X11100Y-6500D01*
X10350Y-7250D02*Y-8750D01*
X11100Y-9500D01*
X13350Y-6500D02*Y-8750D01*
X14100Y-9500D01*
X11100D02*X12600D01*
X13350Y-8750D01*
X16650Y-7250D02*Y-9500D01*
Y-7250D02*X17400Y-6500D01*
X18900D01*
X15900D02*X16650Y-7250D01*
X23700Y-3500D02*Y-9500D01*
X22950D02*X23700Y-8750D01*
X21450Y-9500D02*X22950D01*
X20700Y-8750D02*X21450Y-9500D01*
X20700Y-7250D02*Y-8750D01*
Y-7250D02*X21450Y-6500D01*
X22950D01*
X23700Y-7250D01*
X28200D02*Y-8750D01*
Y-7250D02*X28950Y-6500D01*
X30450D01*
X31200Y-7250D01*
Y-8750D01*
X30450Y-9500D02*X31200Y-8750D01*
X28950Y-9500D02*X30450D01*
X28200Y-8750D02*X28950Y-9500D01*
X33000Y-6500D02*Y-8750D01*
X33750Y-9500D01*
X35250D01*
X36000Y-8750D01*
Y-6500D02*Y-8750D01*
X38550Y-3500D02*Y-8750D01*
X39300Y-9500D01*
X37800Y-5750D02*X39300D01*
X40800Y-3500D02*Y-8750D01*
X41550Y-9500D01*
G54D60*X43050Y-5000D02*Y-5150D01*
G54D59*Y-7250D02*Y-9500D01*
X45300Y-7250D02*Y-9500D01*
Y-7250D02*X46050Y-6500D01*
X46800D01*
X47550Y-7250D01*
Y-9500D01*
X44550Y-6500D02*X45300Y-7250D01*
X50100Y-9500D02*X52350D01*
X49350Y-8750D02*X50100Y-9500D01*
X49350Y-7250D02*Y-8750D01*
Y-7250D02*X50100Y-6500D01*
X51600D01*
X52350Y-7250D01*
X49350Y-8000D02*X52350D01*
Y-7250D02*Y-8000D01*
G54D60*X56850Y-5000D02*Y-5150D01*
G54D59*Y-7250D02*Y-9500D01*
X59100D02*X61350D01*
X62100Y-8750D01*
X61350Y-8000D02*X62100Y-8750D01*
X59100Y-8000D02*X61350D01*
X58350Y-7250D02*X59100Y-8000D01*
X58350Y-7250D02*X59100Y-6500D01*
X61350D01*
X62100Y-7250D01*
X58350Y-8750D02*X59100Y-9500D01*
X67350Y-3500D02*Y-8750D01*
X68100Y-9500D01*
X66600Y-5750D02*X68100D01*
X69600Y-3500D02*Y-9500D01*
Y-7250D02*X70350Y-6500D01*
X71850D01*
X72600Y-7250D01*
Y-9500D01*
X75150D02*X77400D01*
X74400Y-8750D02*X75150Y-9500D01*
X74400Y-7250D02*Y-8750D01*
Y-7250D02*X75150Y-6500D01*
X76650D01*
X77400Y-7250D01*
X74400Y-8000D02*X77400D01*
Y-7250D02*Y-8000D01*
X82650Y-6500D02*X84900D01*
X81900Y-7250D02*X82650Y-6500D01*
X81900Y-7250D02*Y-8750D01*
X82650Y-9500D01*
X84900D01*
X87450D02*X89700D01*
X86700Y-8750D02*X87450Y-9500D01*
X86700Y-7250D02*Y-8750D01*
Y-7250D02*X87450Y-6500D01*
X88950D01*
X89700Y-7250D01*
X86700Y-8000D02*X89700D01*
Y-7250D02*Y-8000D01*
X92250Y-7250D02*Y-9500D01*
Y-7250D02*X93000Y-6500D01*
X93750D01*
X94500Y-7250D01*
Y-9500D01*
X91500Y-6500D02*X92250Y-7250D01*
X97050Y-3500D02*Y-8750D01*
X97800Y-9500D01*
X96300Y-5750D02*X97800D01*
X100050Y-9500D02*X102300D01*
X99300Y-8750D02*X100050Y-9500D01*
X99300Y-7250D02*Y-8750D01*
Y-7250D02*X100050Y-6500D01*
X101550D01*
X102300Y-7250D01*
X99300Y-8000D02*X102300D01*
Y-7250D02*Y-8000D01*
X104850Y-7250D02*Y-9500D01*
Y-7250D02*X105600Y-6500D01*
X107100D01*
X104100D02*X104850Y-7250D01*
X108900Y-3500D02*Y-8750D01*
X109650Y-9500D01*
G54D60*X111150Y-5000D02*Y-5150D01*
G54D59*Y-7250D02*Y-9500D01*
X113400Y-7250D02*Y-9500D01*
Y-7250D02*X114150Y-6500D01*
X114900D01*
X115650Y-7250D01*
Y-9500D01*
X112650Y-6500D02*X113400Y-7250D01*
X118200Y-9500D02*X120450D01*
X117450Y-8750D02*X118200Y-9500D01*
X117450Y-7250D02*Y-8750D01*
Y-7250D02*X118200Y-6500D01*
X119700D01*
X120450Y-7250D01*
X117450Y-8000D02*X120450D01*
Y-7250D02*Y-8000D01*
X124950Y-7250D02*Y-8750D01*
Y-7250D02*X125700Y-6500D01*
X127200D01*
X127950Y-7250D01*
Y-8750D01*
X127200Y-9500D02*X127950Y-8750D01*
X125700Y-9500D02*X127200D01*
X124950Y-8750D02*X125700Y-9500D01*
X130500Y-4250D02*Y-9500D01*
Y-4250D02*X131250Y-3500D01*
X132000D01*
X129750Y-6500D02*X131250D01*
X136950Y-3500D02*Y-8750D01*
X137700Y-9500D01*
X136200Y-5750D02*X137700D01*
X139200Y-3500D02*Y-9500D01*
Y-7250D02*X139950Y-6500D01*
X141450D01*
X142200Y-7250D01*
Y-9500D01*
G54D60*X144000Y-5000D02*Y-5150D01*
G54D59*Y-7250D02*Y-9500D01*
X146250D02*X148500D01*
X149250Y-8750D01*
X148500Y-8000D02*X149250Y-8750D01*
X146250Y-8000D02*X148500D01*
X145500Y-7250D02*X146250Y-8000D01*
X145500Y-7250D02*X146250Y-6500D01*
X148500D01*
X149250Y-7250D01*
X145500Y-8750D02*X146250Y-9500D01*
X154500Y-7250D02*Y-11750D01*
X153750Y-6500D02*X154500Y-7250D01*
X155250Y-6500D01*
X156750D01*
X157500Y-7250D01*
Y-8750D01*
X156750Y-9500D02*X157500Y-8750D01*
X155250Y-9500D02*X156750D01*
X154500Y-8750D02*X155250Y-9500D01*
X161550Y-6500D02*X162300Y-7250D01*
X160050Y-6500D02*X161550D01*
X159300Y-7250D02*X160050Y-6500D01*
X159300Y-7250D02*Y-8750D01*
X160050Y-9500D01*
X162300Y-6500D02*Y-8750D01*
X163050Y-9500D01*
X160050D02*X161550D01*
X162300Y-8750D01*
X165600Y-3500D02*Y-8750D01*
X166350Y-9500D01*
X164850Y-5750D02*X166350D01*
X167850Y-3500D02*Y-9500D01*
Y-7250D02*X168600Y-6500D01*
X170100D01*
X170850Y-7250D01*
Y-9500D01*
X200750Y238500D02*Y232500D01*
X202700Y238500D02*X203750Y237450D01*
Y233550D01*
X202700Y232500D02*X203750Y233550D01*
X200000Y232500D02*X202700D01*
X200000Y238500D02*X202700D01*
X207800Y235500D02*X208550Y234750D01*
X206300Y235500D02*X207800D01*
X205550Y234750D02*X206300Y235500D01*
X205550Y234750D02*Y233250D01*
X206300Y232500D01*
X208550Y235500D02*Y233250D01*
X209300Y232500D01*
X206300D02*X207800D01*
X208550Y233250D01*
X211850Y238500D02*Y233250D01*
X212600Y232500D01*
X211100Y236250D02*X212600D01*
X214850Y232500D02*X217100D01*
X214100Y233250D02*X214850Y232500D01*
X214100Y234750D02*Y233250D01*
Y234750D02*X214850Y235500D01*
X216350D01*
X217100Y234750D01*
X214100Y234000D02*X217100D01*
Y234750D02*Y234000D01*
X218900Y236250D02*X219650D01*
X218900Y234750D02*X219650D01*
X224150Y238500D02*Y235500D01*
X224900Y232500D01*
X226400Y235500D01*
X227900Y232500D01*
X228650Y235500D01*
Y238500D02*Y235500D01*
X231200Y232500D02*X233450D01*
X230450Y233250D02*X231200Y232500D01*
X230450Y234750D02*Y233250D01*
Y234750D02*X231200Y235500D01*
X232700D01*
X233450Y234750D01*
X230450Y234000D02*X233450D01*
Y234750D02*Y234000D01*
X238250Y238500D02*Y232500D01*
X237500D02*X238250Y233250D01*
X236000Y232500D02*X237500D01*
X235250Y233250D02*X236000Y232500D01*
X235250Y234750D02*Y233250D01*
Y234750D02*X236000Y235500D01*
X237500D01*
X238250Y234750D01*
X242750Y237300D02*X243950Y238500D01*
Y232500D01*
X242750D02*X245000D01*
X246800Y233250D02*X247550Y232500D01*
X246800Y237750D02*Y233250D01*
Y237750D02*X247550Y238500D01*
X249050D01*
X249800Y237750D01*
Y233250D01*
X249050Y232500D02*X249800Y233250D01*
X247550Y232500D02*X249050D01*
X246800Y234000D02*X249800Y237000D01*
X254300Y238500D02*Y232500D01*
Y238500D02*X257300D01*
X254300Y235800D02*X256550D01*
X259850Y232500D02*X262100D01*
X259100Y233250D02*X259850Y232500D01*
X259100Y234750D02*Y233250D01*
Y234750D02*X259850Y235500D01*
X261350D01*
X262100Y234750D01*
X259100Y234000D02*X262100D01*
Y234750D02*Y234000D01*
X263900Y238500D02*Y232500D01*
Y233250D02*X264650Y232500D01*
X266150D01*
X266900Y233250D01*
Y234750D02*Y233250D01*
X266150Y235500D02*X266900Y234750D01*
X264650Y235500D02*X266150D01*
X263900Y234750D02*X264650Y235500D01*
X271400Y237750D02*X272150Y238500D01*
X274400D01*
X275150Y237750D01*
Y236250D01*
X271400Y232500D02*X275150Y236250D01*
X271400Y232500D02*X275150D01*
X276950Y233250D02*X277700Y232500D01*
X276950Y237750D02*Y233250D01*
Y237750D02*X277700Y238500D01*
X279200D01*
X279950Y237750D01*
Y233250D01*
X279200Y232500D02*X279950Y233250D01*
X277700Y232500D02*X279200D01*
X276950Y234000D02*X279950Y237000D01*
X281750Y237750D02*X282500Y238500D01*
X284750D01*
X285500Y237750D01*
Y236250D01*
X281750Y232500D02*X285500Y236250D01*
X281750Y232500D02*X285500D01*
X287300Y237300D02*X288500Y238500D01*
Y232500D01*
X287300D02*X289550D01*
X294050Y233250D02*X294800Y232500D01*
X294050Y237750D02*Y233250D01*
Y237750D02*X294800Y238500D01*
X296300D01*
X297050Y237750D01*
Y233250D01*
X296300Y232500D02*X297050Y233250D01*
X294800Y232500D02*X296300D01*
X294050Y234000D02*X297050Y237000D01*
X298850Y237300D02*X300050Y238500D01*
Y232500D01*
X298850D02*X301100D01*
X302900Y236250D02*X303650D01*
X302900Y234750D02*X303650D01*
X305450Y237750D02*X306200Y238500D01*
X308450D01*
X309200Y237750D01*
Y236250D01*
X305450Y232500D02*X309200Y236250D01*
X305450Y232500D02*X309200D01*
X311000Y237750D02*X311750Y238500D01*
X314000D01*
X314750Y237750D01*
Y236250D01*
X311000Y232500D02*X314750Y236250D01*
X311000Y232500D02*X314750D01*
X316550Y236250D02*X317300D01*
X316550Y234750D02*X317300D01*
X319100D02*X322100Y238500D01*
X319100Y234750D02*X322850D01*
X322100Y238500D02*Y232500D01*
X325400D02*X327650Y235500D01*
Y237750D02*Y235500D01*
X326900Y238500D02*X327650Y237750D01*
X325400Y238500D02*X326900D01*
X324650Y237750D02*X325400Y238500D01*
X324650Y237750D02*Y236250D01*
X325400Y235500D01*
X327650D01*
X332150Y237000D02*Y232500D01*
Y237000D02*X333200Y238500D01*
X334850D01*
X335900Y237000D01*
Y232500D01*
X332150Y235500D02*X335900D01*
X337700Y238500D02*Y232500D01*
Y238500D02*X339950Y235500D01*
X342200Y238500D01*
Y232500D01*
X349700Y238500D02*X350450Y237750D01*
X347450Y238500D02*X349700D01*
X346700Y237750D02*X347450Y238500D01*
X346700Y237750D02*Y233250D01*
X347450Y232500D01*
X349700D01*
X350450Y233250D01*
Y234750D02*Y233250D01*
X349700Y235500D02*X350450Y234750D01*
X348200Y235500D02*X349700D01*
X352250Y238500D02*Y232500D01*
Y238500D02*X354500Y235500D01*
X356750Y238500D01*
Y232500D01*
X358550Y238500D02*X361550D01*
X360050D02*Y232500D01*
X366050Y238500D02*Y233250D01*
X366800Y232500D01*
X368300D01*
X369050Y233250D01*
Y238500D02*Y233250D01*
X370850Y238500D02*X373850D01*
X372350D02*Y232500D01*
X376700D02*X378650D01*
X375650Y233550D02*X376700Y232500D01*
X375650Y237450D02*Y233550D01*
Y237450D02*X376700Y238500D01*
X378650D01*
X200000Y252000D02*Y247500D01*
Y252000D02*X201050Y253500D01*
X202700D01*
X203750Y252000D01*
Y247500D01*
X200000Y250500D02*X203750D01*
X205550D02*Y248250D01*
X206300Y247500D01*
X207800D01*
X208550Y248250D01*
Y250500D02*Y248250D01*
X211100Y253500D02*Y248250D01*
X211850Y247500D01*
X210350Y251250D02*X211850D01*
X213350Y253500D02*Y247500D01*
Y249750D02*X214100Y250500D01*
X215600D01*
X216350Y249750D01*
Y247500D01*
X218150Y249750D02*Y248250D01*
Y249750D02*X218900Y250500D01*
X220400D01*
X221150Y249750D01*
Y248250D01*
X220400Y247500D02*X221150Y248250D01*
X218900Y247500D02*X220400D01*
X218150Y248250D02*X218900Y247500D01*
X223700Y249750D02*Y247500D01*
Y249750D02*X224450Y250500D01*
X225950D01*
X222950D02*X223700Y249750D01*
X227750Y251250D02*X228500D01*
X227750Y249750D02*X228500D01*
X233750Y253500D02*Y248250D01*
X234500Y247500D01*
X233000Y251250D02*X234500D01*
X236000Y249750D02*Y248250D01*
Y249750D02*X236750Y250500D01*
X238250D01*
X239000Y249750D01*
Y248250D01*
X238250Y247500D02*X239000Y248250D01*
X236750Y247500D02*X238250D01*
X236000Y248250D02*X236750Y247500D01*
X241550Y249750D02*Y247500D01*
Y249750D02*X242300Y250500D01*
X243050D01*
X243800Y249750D01*
Y247500D01*
Y249750D02*X244550Y250500D01*
X245300D01*
X246050Y249750D01*
Y247500D01*
X240800Y250500D02*X241550Y249750D01*
X200000Y268500D02*X203000D01*
X201500D02*Y262500D01*
G54D60*X204800Y267000D02*Y266850D01*
G54D59*Y264750D02*Y262500D01*
X207050Y268500D02*Y263250D01*
X207800Y262500D01*
X206300Y266250D02*X207800D01*
X209300Y268500D02*Y263250D01*
X210050Y262500D01*
X212300D02*X214550D01*
X211550Y263250D02*X212300Y262500D01*
X211550Y264750D02*Y263250D01*
Y264750D02*X212300Y265500D01*
X213800D01*
X214550Y264750D01*
X211550Y264000D02*X214550D01*
Y264750D02*Y264000D01*
X216350Y266250D02*X217100D01*
X216350Y264750D02*X217100D01*
X221600Y263250D02*X222350Y262500D01*
X221600Y267750D02*X222350Y268500D01*
X221600Y267750D02*Y263250D01*
X224150Y265500D02*Y263250D01*
X224900Y262500D01*
X226400D01*
X227150Y263250D01*
Y265500D02*Y263250D01*
X229700Y264750D02*Y262500D01*
Y264750D02*X230450Y265500D01*
X231200D01*
X231950Y264750D01*
Y262500D01*
X228950Y265500D02*X229700Y264750D01*
X233750Y268500D02*Y262500D01*
Y264750D02*X236000Y262500D01*
X233750Y264750D02*X235250Y266250D01*
X238550Y264750D02*Y262500D01*
Y264750D02*X239300Y265500D01*
X240050D01*
X240800Y264750D01*
Y262500D01*
X237800Y265500D02*X238550Y264750D01*
X242600D02*Y263250D01*
Y264750D02*X243350Y265500D01*
X244850D01*
X245600Y264750D01*
Y263250D01*
X244850Y262500D02*X245600Y263250D01*
X243350Y262500D02*X244850D01*
X242600Y263250D02*X243350Y262500D01*
X247400Y265500D02*Y263250D01*
X248150Y262500D01*
X248900D01*
X249650Y263250D01*
Y265500D02*Y263250D01*
X250400Y262500D01*
X251150D01*
X251900Y263250D01*
Y265500D02*Y263250D01*
X254450Y264750D02*Y262500D01*
Y264750D02*X255200Y265500D01*
X255950D01*
X256700Y264750D01*
Y262500D01*
X253700Y265500D02*X254450Y264750D01*
X258500Y268500D02*X259250Y267750D01*
Y263250D01*
X258500Y262500D02*X259250Y263250D01*
X263750Y265500D02*X266750D01*
X271250Y268500D02*Y262500D01*
Y268500D02*X274250D01*
X271250Y265800D02*X273500D01*
X278300Y265500D02*X279050Y264750D01*
X276800Y265500D02*X278300D01*
X276050Y264750D02*X276800Y265500D01*
X276050Y264750D02*Y263250D01*
X276800Y262500D01*
X279050Y265500D02*Y263250D01*
X279800Y262500D01*
X276800D02*X278300D01*
X279050Y263250D01*
X281600Y268500D02*Y262500D01*
Y263250D02*X282350Y262500D01*
X283850D01*
X284600Y263250D01*
Y264750D02*Y263250D01*
X283850Y265500D02*X284600Y264750D01*
X282350Y265500D02*X283850D01*
X281600Y264750D02*X282350Y265500D01*
X287150Y264750D02*Y262500D01*
Y264750D02*X287900Y265500D01*
X289400D01*
X286400D02*X287150Y264750D01*
G54D60*X291200Y267000D02*Y266850D01*
G54D59*Y264750D02*Y262500D01*
X293450Y265500D02*X295700D01*
X292700Y264750D02*X293450Y265500D01*
X292700Y264750D02*Y263250D01*
X293450Y262500D01*
X295700D01*
X299750Y265500D02*X300500Y264750D01*
X298250Y265500D02*X299750D01*
X297500Y264750D02*X298250Y265500D01*
X297500Y264750D02*Y263250D01*
X298250Y262500D01*
X300500Y265500D02*Y263250D01*
X301250Y262500D01*
X298250D02*X299750D01*
X300500Y263250D01*
X303800Y268500D02*Y263250D01*
X304550Y262500D01*
X303050Y266250D02*X304550D01*
G54D60*X306050Y267000D02*Y266850D01*
G54D59*Y264750D02*Y262500D01*
X307550Y264750D02*Y263250D01*
Y264750D02*X308300Y265500D01*
X309800D01*
X310550Y264750D01*
Y263250D01*
X309800Y262500D02*X310550Y263250D01*
X308300Y262500D02*X309800D01*
X307550Y263250D02*X308300Y262500D01*
X313100Y264750D02*Y262500D01*
Y264750D02*X313850Y265500D01*
X314600D01*
X315350Y264750D01*
Y262500D01*
X312350Y265500D02*X313100Y264750D01*
X320600Y268500D02*Y262500D01*
X322550Y268500D02*X323600Y267450D01*
Y263550D01*
X322550Y262500D02*X323600Y263550D01*
X319850Y262500D02*X322550D01*
X319850Y268500D02*X322550D01*
X326150Y264750D02*Y262500D01*
Y264750D02*X326900Y265500D01*
X328400D01*
X325400D02*X326150Y264750D01*
X332450Y265500D02*X333200Y264750D01*
X330950Y265500D02*X332450D01*
X330200Y264750D02*X330950Y265500D01*
X330200Y264750D02*Y263250D01*
X330950Y262500D01*
X333200Y265500D02*Y263250D01*
X333950Y262500D01*
X330950D02*X332450D01*
X333200Y263250D01*
X335750Y265500D02*Y263250D01*
X336500Y262500D01*
X337250D01*
X338000Y263250D01*
Y265500D02*Y263250D01*
X338750Y262500D01*
X339500D01*
X340250Y263250D01*
Y265500D02*Y263250D01*
G54D60*X342050Y267000D02*Y266850D01*
G54D59*Y264750D02*Y262500D01*
X344300Y264750D02*Y262500D01*
Y264750D02*X345050Y265500D01*
X345800D01*
X346550Y264750D01*
Y262500D01*
X343550Y265500D02*X344300Y264750D01*
X350600Y265500D02*X351350Y264750D01*
X349100Y265500D02*X350600D01*
X348350Y264750D02*X349100Y265500D01*
X348350Y264750D02*Y263250D01*
X349100Y262500D01*
X350600D01*
X351350Y263250D01*
X348350Y261000D02*X349100Y260250D01*
X350600D01*
X351350Y261000D01*
Y265500D02*Y261000D01*
M02*
