G04 start of page 9 for group -4079 idx -4079 *
G04 Title: (unknown), topsilk *
G04 Creator: pcb 20140316 *
G04 CreationDate: Sat 06 Feb 2021 07:58:31 AM GMT UTC *
G04 For: tom *
G04 Format: Gerber/RS-274X *
G04 PCB-Dimensions (mil): 600.00 2100.00 *
G04 PCB-Coordinate-Origin: lower left *
%MOIN*%
%FSLAX25Y25*%
%LNTOPSILK*%
%ADD53C,0.0118*%
%ADD52C,0.0079*%
%ADD51C,0.0060*%
G54D51*X21000Y165000D02*Y162000D01*
X19000D02*Y165000D01*
X21000Y162000D02*X19000D01*
Y165000D02*X21000D01*
X26000D02*Y162000D01*
X24000D02*Y165000D01*
X26000Y162000D02*X24000D01*
Y165000D02*X26000D01*
X34000Y193000D02*X36000D01*
Y190000D02*X34000D01*
Y193000D01*
X36000D02*Y190000D01*
X24000Y193000D02*X26000D01*
Y190000D02*X24000D01*
X26000Y193000D02*Y190000D01*
X24000Y193000D02*Y190000D01*
X29000Y193000D02*X31000D01*
Y190000D02*X29000D01*
Y193000D01*
X31000D02*Y190000D01*
X39000Y193000D02*X41000D01*
Y190000D02*X39000D01*
X41000Y193000D02*Y190000D01*
X39000Y193000D02*Y190000D01*
X19000Y193000D02*X21000D01*
Y190000D01*
X19000D01*
Y193000D01*
X31000Y165000D02*Y162000D01*
X29000D02*Y165000D01*
X31000Y162000D02*X29000D01*
Y165000D02*X31000D01*
X41000D02*Y162000D01*
X39000D02*Y165000D01*
X41000Y162000D02*X39000D01*
Y165000D02*X41000D01*
X36000D02*Y162000D01*
X34000D02*Y165000D01*
X36000Y162000D02*X34000D01*
Y165000D02*X36000D01*
X4000Y42300D02*Y41000D01*
X4700Y43000D02*X4000Y42300D01*
X4700Y43000D02*X7300D01*
X8000Y42300D01*
Y41000D01*
X4000Y39100D02*Y37800D01*
X4700Y39800D02*X4000Y39100D01*
X4700Y39800D02*X7300D01*
X8000Y39100D01*
Y37800D01*
X6000Y36600D02*Y34600D01*
X4000Y33400D02*Y31400D01*
X4500Y30900D01*
X5700D01*
X6200Y31400D02*X5700Y30900D01*
X6200Y32900D02*Y31400D01*
X4000Y32900D02*X8000D01*
Y33400D02*Y31400D01*
X7500Y30900D01*
X6700D02*X7500D01*
X6200Y31400D02*X6700Y30900D01*
X8000Y29700D02*X6000Y28700D01*
X8000Y27700D01*
X4000Y28700D02*X6000D01*
Y26500D02*Y24500D01*
X8000Y21300D02*X7500Y20800D01*
X8000Y22800D02*Y21300D01*
X7500Y23300D02*X8000Y22800D01*
X6500Y23300D02*X7500D01*
X6500D02*X6000Y22800D01*
Y21300D01*
X5500Y20800D01*
X4500D02*X5500D01*
X4000Y21300D02*X4500Y20800D01*
X4000Y22800D02*Y21300D01*
X4500Y23300D02*X4000Y22800D01*
Y19600D02*X7000D01*
X8000Y18900D01*
Y17800D01*
X7000Y17100D01*
X4000D02*X7000D01*
X6000Y19600D02*Y17100D01*
X5500Y14100D02*X8000Y12100D01*
X5500Y14100D02*Y11600D01*
X4000Y12100D02*X8000D01*
X4000Y10400D02*Y9900D01*
X4500Y8700D02*X4000Y8200D01*
X4500Y8700D02*X7500D01*
X8000Y8200D01*
Y7200D01*
X7500Y6700D01*
X4500D02*X7500D01*
X4000Y7200D02*X4500Y6700D01*
X4000Y8200D02*Y7200D01*
X5000Y8700D02*X7000Y6700D01*
X19500Y188200D02*X20300Y189000D01*
Y185000D01*
X19500D02*X21000D01*
X53000Y45500D02*X54500D01*
X53000D02*X52500Y45000D01*
Y44500D01*
X53000Y44000D01*
X54500D01*
X53000D02*X52500Y43500D01*
Y43000D01*
X53000Y42500D01*
X54500D01*
X53000Y41300D02*X54000D01*
X54500Y40800D01*
Y39800D01*
X54000Y39300D01*
X53000D02*X54000D01*
X52500Y39800D02*X53000Y39300D01*
X52500Y40800D02*Y39800D01*
X53000Y41300D02*X52500Y40800D01*
X53000Y38100D02*X54000D01*
X54500Y37600D01*
Y36600D01*
X54000Y36100D01*
X53000D02*X54000D01*
X52500Y36600D02*X53000Y36100D01*
X52500Y37600D02*Y36600D01*
X53000Y38100D02*X52500Y37600D01*
X53000Y34900D02*X56500D01*
X53000D02*X52500Y34400D01*
X53000Y33400D02*X56500D01*
X53000D02*X52500Y32900D01*
X53000Y31900D02*X54500D01*
X53000D02*X52500Y31400D01*
X51500Y29900D02*X54500D01*
X51000Y30400D02*X51500Y29900D01*
X51000Y31400D02*Y30400D01*
X51500Y31900D02*X51000Y31400D01*
X52500D02*Y30400D01*
X53000Y29900D01*
Y28700D02*X56500D01*
X53000D02*X52500Y28200D01*
X53000Y27200D02*X54000D01*
X54500Y26700D01*
Y25700D01*
X54000Y25200D01*
X53000D02*X54000D01*
X52500Y25700D02*X53000Y25200D01*
X52500Y26700D02*Y25700D01*
X53000Y27200D02*X52500Y26700D01*
X54500Y22500D02*X54000Y22000D01*
X54500Y23500D02*Y22500D01*
X54000Y24000D02*X54500Y23500D01*
X53000Y24000D02*X54000D01*
X53000D02*X52500Y23500D01*
Y22500D01*
X53000Y22000D01*
X51500Y24000D02*X51000Y23500D01*
Y22500D01*
X51500Y22000D01*
X54500D01*
X55400Y20800D02*X55500D01*
X52500D02*X54000D01*
X54500Y19300D02*Y17800D01*
X54000Y19800D02*X54500Y19300D01*
X53000Y19800D02*X54000D01*
X53000D02*X52500Y19300D01*
Y17800D01*
Y16600D02*Y16100D01*
X54500Y14400D02*Y12900D01*
X54000Y14900D02*X54500Y14400D01*
X53000Y14900D02*X54000D01*
X53000D02*X52500Y14400D01*
Y12900D01*
X53000Y11700D02*X54000D01*
X54500Y11200D01*
Y10200D01*
X54000Y9700D01*
X53000D02*X54000D01*
X52500Y10200D02*X53000Y9700D01*
X52500Y11200D02*Y10200D01*
X53000Y11700D02*X52500Y11200D01*
Y8000D02*X54000D01*
X54500Y7500D01*
Y7000D01*
X54000Y6500D01*
X52500D02*X54000D01*
X54500Y6000D01*
Y5500D01*
X54000Y5000D01*
X52500D02*X54000D01*
X54500Y8500D02*X54000Y8000D01*
X4000Y130500D02*X8000D01*
Y129200D02*X7300Y128500D01*
X4700D02*X7300D01*
X4000Y129200D02*X4700Y128500D01*
X4000Y131000D02*Y129200D01*
X8000Y131000D02*Y129200D01*
X4000Y126600D02*Y125300D01*
X4700Y127300D02*X4000Y126600D01*
X4700Y127300D02*X7300D01*
X8000Y126600D01*
Y125300D01*
X4500Y124100D02*X4000Y123600D01*
X4500Y124100D02*X7500D01*
X8000Y123600D01*
Y122600D01*
X7500Y122100D01*
X4500D02*X7500D01*
X4000Y122600D02*X4500Y122100D01*
X4000Y123600D02*Y122600D01*
X5000Y124100D02*X7000Y122100D01*
X7200Y120900D02*X8000Y120100D01*
X4000D02*X8000D01*
X4000Y120900D02*Y119400D01*
G54D52*X16650Y208250D02*X43350D01*
Y183650D01*
X16650D02*Y208250D01*
X17073Y183650D02*X16650D01*
X43350D02*X42927D01*
X15158Y180707D02*G75*G03X15158Y180707I394J0D01*G01*
X16650Y146850D02*X43350D01*
X16650Y171450D02*Y146850D01*
X43350Y171450D02*Y146850D01*
X42927Y171450D02*X43350D01*
X16650D02*X17073D01*
X44842Y174393D02*G75*G03X44842Y174393I-394J0D01*G01*
G54D53*X11291Y125000D02*G75*G03X11291Y125000I18209J0D01*G01*
X11791Y25000D02*G75*G03X11791Y25000I18209J0D01*G01*
G54D51*X27354Y199880D02*X28330D01*
Y195610D01*
X27720Y195000D02*X28330Y195610D01*
X27110Y195000D02*X27720D01*
X26500Y195610D02*X27110Y195000D01*
X26500Y196220D02*Y195610D01*
X29794Y199270D02*X30404Y199880D01*
X32234D01*
X32844Y199270D01*
Y198050D01*
X29794Y195000D02*X32844Y198050D01*
X29794Y195000D02*X32844D01*
X31170Y155220D02*X32146D01*
X31170Y159490D02*Y155220D01*
X31780Y160100D02*X31170Y159490D01*
X31780Y160100D02*X32390D01*
X33000Y159490D02*X32390Y160100D01*
X33000Y159490D02*Y158880D01*
X29706Y155830D02*X29096Y155220D01*
X27876D02*X29096D01*
X27876D02*X27266Y155830D01*
X27876Y160100D02*X27266Y159490D01*
X27876Y160100D02*X29096D01*
X29706Y159490D02*X29096Y160100D01*
X27876Y157416D02*X29096D01*
X27266Y156806D02*Y155830D01*
Y159490D02*Y158026D01*
X27876Y157416D01*
X27266Y156806D02*X27876Y157416D01*
M02*
