G04 start of page 3 for group 1 idx 1 *
G04 Title: (unknown), bottom *
G04 Creator: pcb 20140316 *
G04 CreationDate: Wed 10 Feb 2021 04:09:06 PM GMT UTC *
G04 For: tom *
G04 Format: Gerber/RS-274X *
G04 PCB-Dimensions (mil): 600.00 2100.00 *
G04 PCB-Coordinate-Origin: lower left *
%MOIN*%
%FSLAX25Y25*%
%LNBOTTOM*%
%ADD35C,0.0380*%
%ADD34C,0.0170*%
%ADD33C,0.1339*%
%ADD32C,0.0590*%
%ADD31C,0.0118*%
%ADD30C,0.0600*%
%ADD29C,0.0001*%
%ADD28C,0.0320*%
%ADD27C,0.3287*%
%ADD26C,0.0250*%
%ADD25C,0.0100*%
G54D25*X30000Y146000D02*X40750Y141250D01*
X49000Y133000D02*X40750Y141250D01*
X10000Y133000D02*Y117000D01*
Y133000D02*X20000Y143000D01*
X6500Y134000D02*X17500Y145000D01*
X6500Y116000D02*Y133000D01*
Y132500D02*Y134000D01*
X49000Y117000D02*Y133000D01*
X49364Y52864D02*X55364D01*
X50000Y62500D02*X53500D01*
X55364Y52864D02*X57500Y55000D01*
Y131000D01*
Y130500D02*Y133500D01*
X53500Y62500D02*X55000Y64000D01*
Y130000D01*
Y129800D02*Y130000D01*
Y129900D02*Y130200D01*
Y129400D02*Y130200D01*
X41000Y75500D02*Y109000D01*
X49000Y117000D01*
X57500Y133500D02*X42500Y148500D01*
X55000Y129900D02*Y131500D01*
X40050Y146450D01*
X10000Y72500D02*X13500D01*
G54D26*X27500D02*X10000D01*
X27500Y67500D02*X10000Y62500D01*
X27500D02*X10000Y52500D01*
G54D25*X24500Y77500D02*X22000Y80000D01*
X27500Y77500D02*X24500D01*
G54D26*X27500Y82500D02*X10000Y92500D01*
X27500Y77500D02*X10000Y82500D01*
G54D25*Y117000D02*X37500Y89500D01*
Y80000D02*Y89500D01*
X32500Y90000D02*X6500Y116000D01*
X46500Y72500D02*X50000D01*
X32500Y86000D02*Y82500D01*
X37500Y80000D02*X35000Y77500D01*
X32500D01*
X49500Y72500D02*X44000D01*
X41000Y75500D01*
X32500Y84000D02*Y90000D01*
X35000Y186000D02*Y168500D01*
X40000Y186000D02*Y167000D01*
Y187000D02*Y185500D01*
X35000Y187000D02*Y185500D01*
X20000Y185000D02*Y167000D01*
X21500Y186500D02*X20000Y185000D01*
X30000Y187000D02*Y185500D01*
X20500D02*X21750Y186750D01*
X25000Y168500D02*Y186500D01*
X25500Y187000D01*
X30000Y186500D02*Y146000D01*
X20000Y167000D02*X17500Y164500D01*
X20000Y143000D02*Y163500D01*
X17500Y145000D02*Y164500D01*
X20000Y163500D02*X25000Y168500D01*
X42500Y164500D02*X40000Y167000D01*
X42500Y148500D02*Y164500D01*
X40050Y146450D02*Y163450D01*
X35000Y168500D02*X40050Y163450D01*
G54D27*X29500Y125000D03*
G54D28*X27500Y82500D03*
Y77500D03*
G54D27*X30000Y25000D03*
G54D28*X27500Y72500D03*
Y67500D03*
Y62500D03*
X32500D03*
Y67500D03*
Y72500D03*
Y77500D03*
Y82500D03*
G54D29*G36*
X7000Y95500D02*Y89500D01*
X13000D01*
Y95500D01*
X7000D01*
G37*
G54D30*X10000Y82500D03*
Y72500D03*
Y62500D03*
Y52500D03*
G54D29*G36*
X47000Y95500D02*Y89500D01*
X53000D01*
Y95500D01*
X47000D01*
G37*
G54D30*X50000Y82500D03*
Y72500D03*
Y62500D03*
Y52500D03*
G54D29*G36*
X23201Y187497D02*X22497Y188201D01*
X21503D01*
X20799Y187497D01*
Y186503D01*
X21503Y185799D01*
X22497D01*
X23201Y186503D01*
Y187497D01*
G37*
G36*
X31201D02*X30497Y188201D01*
X29503D01*
X28799Y187497D01*
Y186503D01*
X29503Y185799D01*
X30497D01*
X31201Y186503D01*
Y187497D01*
G37*
G36*
X36201D02*X35497Y188201D01*
X34503D01*
X33799Y187497D01*
Y186503D01*
X34503Y185799D01*
X35497D01*
X36201Y186503D01*
Y187497D01*
G37*
G36*
X41201D02*X40497Y188201D01*
X39503D01*
X38799Y187497D01*
Y186503D01*
X39503Y185799D01*
X40497D01*
X41201Y186503D01*
Y187497D01*
G37*
G36*
X26701D02*X25997Y188201D01*
X25003D01*
X24299Y187497D01*
Y186503D01*
X25003Y185799D01*
X25997D01*
X26701Y186503D01*
Y187497D01*
G37*
G54D31*G54D32*G54D33*G54D34*G54D33*G54D34*G54D35*M02*
