G04 start of page 11 for group -4015 idx -4015 *
G04 Title: (unknown), toppaste *
G04 Creator: pcb 20140316 *
G04 CreationDate: Wed 10 Feb 2021 06:22:34 PM GMT UTC *
G04 For: tom *
G04 Format: Gerber/RS-274X *
G04 PCB-Dimensions (mil): 600.00 2100.00 *
G04 PCB-Coordinate-Origin: lower left *
%MOIN*%
%FSLAX25Y25*%
%LNTOPPASTE*%
%ADD65C,0.0020*%
%ADD64C,0.0040*%
%ADD63R,0.0310X0.0310*%
G54D63*X20000Y182500D02*Y179700D01*
X25000Y182500D02*Y179700D01*
X30000Y182500D02*Y179700D01*
X35000Y182500D02*Y179700D01*
X40000Y182500D02*Y179700D01*
Y175400D02*Y172600D01*
X35000Y175400D02*Y172600D01*
X30000Y175400D02*Y172600D01*
X25000Y175400D02*Y172600D01*
X20000Y175400D02*Y172600D01*
G54D64*X37840Y96150D02*X38520Y95720D01*
X37590Y95850D02*X38420Y95400D01*
X37290Y95670D02*X38170Y95210D01*
G54D65*X36050Y95640D02*X36450D01*
G54D64*X36750Y95590D02*X37050Y95440D01*
X37070Y95430D02*X37320Y95260D01*
X36630Y95620D02*X37010Y95820D01*
X37090Y95860D02*X37390Y96080D01*
X37370Y95240D02*X37550Y95150D01*
X37590Y95130D02*X37990Y94930D01*
X38050Y94890D02*X38460Y95080D01*
X38490Y95110D02*X38750Y95630D01*
X37460Y96140D02*X38010Y96380D01*
X38050D02*X38420Y96220D01*
X38480Y96210D02*X38760Y95650D01*
M02*
