G04 start of page 7 for group -4063 idx -4063 *
G04 Title: (unknown), componentmask *
G04 Creator: pcb 20140316 *
G04 CreationDate: Wed 10 Feb 2021 03:30:42 PM GMT UTC *
G04 For: tom *
G04 Format: Gerber/RS-274X *
G04 PCB-Dimensions (mil): 600.00 2100.00 *
G04 PCB-Coordinate-Origin: lower left *
%MOIN*%
%FSLAX25Y25*%
%LNTOPMASK*%
%ADD49R,0.0390X0.0390*%
%ADD48C,0.0020*%
%ADD47C,0.0040*%
%ADD46C,0.0660*%
%ADD45C,0.0001*%
%ADD44C,0.0400*%
%ADD43C,0.3406*%
%ADD42C,0.0880*%
G54D42*X25000Y203550D03*
X35000D03*
Y151550D03*
X25000D03*
G54D43*X29500Y125000D03*
G54D44*X27500Y82500D03*
Y77500D03*
G54D43*X30000Y25000D03*
G54D44*X27500Y72500D03*
Y67500D03*
Y62500D03*
X32500D03*
Y67500D03*
Y72500D03*
Y77500D03*
Y82500D03*
G54D45*G36*
X6700Y95800D02*Y89200D01*
X13300D01*
Y95800D01*
X6700D01*
G37*
G54D46*X10000Y82500D03*
Y72500D03*
Y62500D03*
Y52500D03*
G54D45*G36*
X46700Y95800D02*Y89200D01*
X53300D01*
Y95800D01*
X46700D01*
G37*
G54D46*X50000Y82500D03*
Y72500D03*
Y62500D03*
Y52500D03*
G54D45*G36*
X22000Y187000D02*G37*
G36*
X30000D02*G37*
G36*
X35000D02*G37*
G36*
X40000D02*G37*
G36*
X25500D02*G37*
G54D47*X37840Y96150D02*X38520Y95720D01*
X37460Y96140D02*X38010Y96380D01*
X38050D02*X38420Y96220D01*
X38480Y96210D02*X38760Y95650D01*
X37590Y95850D02*X38420Y95400D01*
X37290Y95670D02*X38170Y95210D01*
X38490Y95110D02*X38750Y95630D01*
G54D48*X36050Y95640D02*X36450D01*
G54D47*X36750Y95590D02*X37050Y95440D01*
X37070Y95430D02*X37320Y95260D01*
X36630Y95620D02*X37010Y95820D01*
X37090Y95860D02*X37390Y96080D01*
X37370Y95240D02*X37550Y95150D01*
X37590Y95130D02*X37990Y94930D01*
X38050Y94890D02*X38460Y95080D01*
G54D49*X30000Y182500D02*Y179700D01*
X35000Y182500D02*Y179700D01*
X40000Y182500D02*Y179700D01*
Y175400D02*Y172600D01*
X35000Y175400D02*Y172600D01*
X30000Y175400D02*Y172600D01*
X20000Y182500D02*Y179700D01*
X25000Y182500D02*Y179700D01*
Y175400D02*Y172600D01*
X20000Y175400D02*Y172600D01*
M02*
